<svg version="1.1" id="Layer_1" xmlns="http://www.w3.org/2000/svg" xmlns:xlink="http://www.w3.org/1999/xlink" x="0px"
	y="0px" width="100%" viewBox="10 230 1500 800" preserveAspectRatio="xMidYMid meet"
	enable-background="new 0 0 1280 1280" xml:space="preserve">
	<path fill="#030303" opacity="1.000000" stroke="none" d="
M877.105469,531.890991 
	C903.228455,556.403198 900.483826,602.889648 869.935913,625.604614 
	C853.634033,637.726501 835.222900,643.719299 815.264709,644.903687 
	C803.206421,645.619202 791.070923,645.035400 778.402344,645.035400 
	C778.402344,658.916687 778.402344,673.190063 778.402344,687.463501 
	C778.402344,701.786621 778.402344,716.109741 778.402344,730.721191 
	C768.901306,730.721191 759.473572,730.721191 749.772156,730.721191 
	C749.772156,658.745972 749.772156,586.708008 749.772156,514.385986 
	C778.983093,510.383820 807.943848,505.975616 837.231018,511.900482 
	C852.204712,514.929688 865.643677,521.044312 877.105469,531.890991 
M808.438660,620.986328 
	C816.503906,619.985474 824.701721,619.592590 832.608948,617.867493 
	C854.456482,613.100830 866.385620,597.247925 865.928711,574.527344 
	C865.513184,553.868164 853.114685,539.270874 831.184875,536.177307 
	C817.279236,534.215820 803.030090,534.624023 788.928772,534.161377 
	C785.517273,534.049438 782.080750,534.696472 778.630920,534.996643 
	C778.630920,562.928894 778.630920,590.343445 778.630920,618.908386 
	C788.334106,619.608093 797.898621,620.297791 808.438660,620.986328 
z" />
	<path fill="#040404" opacity="1.000000" stroke="none" d="
M676.963440,517.979858 
	C693.212341,525.640747 705.912598,536.492371 711.956787,553.499878 
	C722.640381,583.561768 710.854248,614.167664 682.455750,631.107178 
	C668.167053,639.630310 652.549561,644.031555 636.091858,644.913818 
	C624.026917,645.560547 611.899353,645.040527 599.372375,645.040527 
	C599.372375,673.231445 599.372375,701.799194 599.372375,730.702026 
	C589.554565,730.702026 580.151550,730.702026 570.391602,730.702026 
	C570.391602,658.815247 570.391602,586.819580 570.391602,514.380615 
	C602.266174,510.119110 634.009644,504.935974 665.861328,513.943542 
	C669.519104,514.977966 673.021423,516.561951 676.963440,517.979858 
M599.145447,538.753662 
	C599.145447,565.059631 599.145447,591.365601 599.145447,617.731689 
	C600.128052,618.086792 600.872620,618.482056 601.662476,618.622681 
	C618.697266,621.654175 635.678101,622.085938 652.667236,618.056335 
	C674.211914,612.946106 685.434631,599.660583 686.408630,577.693726 
	C687.293213,557.742432 678.194702,544.223938 659.190247,537.944031 
	C640.206299,531.670837 620.680359,533.740234 601.263611,534.913818 
	C600.501282,534.959900 599.847778,536.805664 599.145447,538.753662 
z" />
	<path fill="#050505" opacity="1.000000" stroke="none" d="
M478.584900,534.100342 
	C466.278992,533.549561 454.544830,533.421265 443.457123,538.856567 
	C421.368164,549.684692 418.481140,572.181152 437.419586,587.901123 
	C446.935028,595.799500 458.336243,600.086792 469.902740,603.902344 
	C483.996582,608.551514 497.715637,613.950195 510.153473,622.260559 
	C529.677551,635.305481 536.547668,654.123230 534.544250,676.609802 
	C532.185303,703.085754 515.949463,719.279724 492.471832,728.055054 
	C455.579498,741.844482 420.709106,734.848083 387.103943,715.129150 
	C391.354034,706.080933 395.354095,697.565125 399.235321,689.302185 
	C406.999634,693.428711 414.360565,697.987122 422.222260,701.387939 
	C439.868713,709.021362 458.300629,710.388611 476.959320,705.887817 
	C498.261688,700.749268 509.712830,682.240051 503.964813,662.731384 
	C501.719421,655.110535 497.120148,648.653442 490.393829,644.812012 
	C480.651245,639.247864 470.491211,634.185486 460.024597,630.173462 
	C445.380981,624.560364 430.949066,618.874390 418.277679,609.325867 
	C385.022522,584.266479 389.736206,537.684692 425.569122,517.587036 
	C439.646057,509.691742 454.844910,506.929657 470.693817,507.033142 
	C488.384125,507.148712 505.397034,510.445282 521.159363,518.892090 
	C522.878357,519.813293 524.525940,520.867920 526.505188,522.036987 
	C522.313232,529.853882 518.332764,537.276306 514.853210,543.764771 
	C502.606140,540.472412 490.825439,537.305359 478.584900,534.100342 
z" />
</svg>