<svg version="1.1" id="Layer_1" xmlns="http://www.w3.org/2000/svg" xmlns:xlink="http://www.w3.org/1999/xlink" x="0px"
	y="0px" width="100%" viewBox="0 0 1280 1280" enable-background="new 0 0 1280 1280" xml:space="preserve">
	<path fill="#171719" opacity="1.000000" stroke="none" d="
M812.199829,317.968628 
	C854.912842,327.183014 896.287964,339.315216 936.327393,355.883362 
	C990.531677,378.312927 1040.723022,407.311371 1084.219971,446.986115 
	C1119.310425,478.992950 1147.832520,515.901733 1164.606079,560.864685 
	C1176.982666,594.041443 1182.379639,628.216187 1178.382935,663.722900 
	C1173.284546,709.017029 1156.008301,749.248657 1129.028809,785.612549 
	C1094.269775,832.461792 1049.399658,867.465820 999.022949,895.821716 
	C948.003906,924.539307 893.548706,944.472473 836.744324,958.337952 
	C787.810303,970.282288 738.233948,977.348694 687.957458,980.361267 
	C644.757263,982.949890 601.668640,981.980652 558.686279,977.785522 
	C486.686646,970.758301 416.640839,955.068909 349.400482,927.940430 
	C298.648132,907.464233 251.301971,881.048279 209.285553,845.700867 
	C174.934601,816.802185 146.003006,783.384399 126.064240,742.822327 
	C107.626740,705.314392 98.886398,665.621277 102.334267,623.879333 
	C105.987587,579.650085 121.754913,539.604248 147.265808,503.353973 
	C183.396896,452.012695 231.380157,414.399933 285.723907,384.292664 
	C333.237366,357.969482 383.736816,339.246124 436.283539,325.718018 
	C476.148346,315.454803 516.545532,308.237701 557.472290,304.314514 
	C600.460205,300.193726 643.539429,299.035797 686.738525,301.574219 
	C727.182251,303.950745 767.233643,308.868530 806.925598,316.880127 
	C808.547852,317.207611 810.162537,317.572784 812.199829,317.968628 
M197.399551,827.100647 
	C234.647247,861.828613 277.183716,888.547241 323.200592,909.935547 
	C398.032318,944.716797 477.082214,963.697571 558.882202,971.749451 
	C601.697266,975.963928 644.628296,976.848328 687.667542,974.297302 
	C738.143616,971.305542 787.925537,964.296143 837.012756,952.147095 
	C898.377808,936.959290 956.850464,914.619141 1011.029541,881.776733 
	C1057.624146,853.531982 1098.741211,819.128906 1129.976562,773.892334 
	C1156.390381,735.638794 1172.153931,693.609131 1173.547729,646.895935 
	C1174.857544,602.998596 1162.794922,562.420105 1140.626953,524.760681 
	C1117.377563,485.264160 1085.858765,453.290283 1049.382080,426.026611 
	C999.988892,389.108765 945.045105,363.072327 886.640076,344.000336 
	C819.157959,321.964233 749.799744,310.072906 678.967590,307.410339 
	C650.209534,306.329346 621.306763,306.621399 592.569946,308.159271 
	C565.021362,309.633575 537.491516,312.738708 510.155487,316.569275 
	C477.880463,321.091888 446.158478,328.587555 414.846863,337.795044 
	C357.084778,354.780548 302.342926,378.337402 252.115067,411.814392 
	C212.698105,438.085876 177.995071,469.332428 150.996613,508.593262 
	C126.873505,543.672791 111.563805,582.137878 108.312233,624.756958 
	C104.916039,669.271729 115.255569,710.950623 136.601105,750.016541 
	C152.401230,778.933411 173.127594,803.973999 197.399551,827.100647 
z" />
	<path fill="#171719" opacity="1.000000" stroke="none" d="
M545.579163,320.569397 
	C596.815613,314.881317 647.722229,313.710144 698.698792,317.185089 
	C752.450928,320.849274 805.403015,329.540741 857.247131,344.297638 
	C921.829224,362.680328 982.814697,389.023163 1037.570557,428.436768 
	C1078.011108,457.545990 1112.716675,492.131683 1136.945312,536.243042 
	C1159.645752,577.572144 1169.111328,621.608582 1162.883911,668.564697 
	C1157.719727,707.503418 1142.055176,742.255188 1119.169434,773.869995 
	C1087.461548,817.671936 1046.321777,850.823486 1000.052185,877.921021 
	C942.302551,911.741699 880.048828,933.803162 814.862549,948.214355 
	C743.673950,963.952576 671.639343,969.082703 598.961243,965.792664 
	C564.873108,964.249512 531.012268,960.262390 497.359528,954.324158 
	C437.659821,943.789551 380.008911,926.745972 325.092407,900.963867 
	C273.435303,876.712036 226.264465,845.896057 186.998184,803.984192 
	C160.059113,775.229919 138.946991,742.828186 126.769836,705.053467 
	C117.979317,677.784546 114.846962,649.904175 117.633827,621.333801 
	C122.834358,568.019043 146.665268,523.351868 181.610123,484.004852 
	C221.052261,439.593933 269.580658,407.556854 322.755676,382.115387 
	C367.762634,360.581909 414.855072,344.869293 463.563904,334.458557 
	C490.507141,328.699829 517.931885,325.193970 545.579163,320.569397 
M1029.411621,430.043365 
	C1011.949707,419.402435 994.971924,407.848816 976.940125,398.282074 
	C907.159546,361.260010 832.398926,339.807190 754.394775,329.028900 
	C723.360291,324.740723 692.176453,322.385712 660.839111,321.607574 
	C608.242920,320.301544 556.003052,323.860413 504.128876,332.447937 
	C473.283905,337.554169 442.884888,344.686920 412.962677,353.868073 
	C350.810303,372.938507 292.322205,399.495880 240.097702,438.673859 
	C204.894119,465.082977 174.223801,495.903839 152.345749,534.488464 
	C114.984932,600.378845 112.134331,667.634949 146.027466,735.774780 
	C165.979446,775.886841 195.701111,807.991028 230.350449,835.748779 
	C276.020752,872.335449 327.516022,898.287415 382.337982,918.014709 
	C447.408295,941.429871 514.683960,954.160828 583.535706,958.787964 
	C631.317505,961.998962 679.059265,961.224426 726.745361,956.231995 
	C770.334595,951.668579 813.277161,943.952332 855.439209,931.945557 
	C911.226318,916.058655 964.302246,893.994629 1013.325012,862.697449 
	C1051.808472,838.128784 1086.096680,808.866333 1113.158081,771.820984 
	C1140.135864,734.889832 1157.056885,694.129822 1158.605347,647.798401 
	C1160.069458,603.993347 1147.574707,564.112854 1124.658203,527.197327 
	C1100.289062,487.941711 1067.354126,457.023468 1029.411621,430.043365 
z" />
	<path fill="#171719" opacity="1.000000" stroke="none" d="
M985.538025,538.461426 
	C1005.028320,557.110168 1021.016602,577.794495 1029.760254,603.273804 
	C1041.809692,638.386292 1037.091553,671.844177 1018.528870,703.513489 
	C1000.480469,734.305359 974.157104,756.824463 944.382141,775.547546 
	C900.703003,803.013794 852.843811,820.183594 802.903137,832.108765 
	C770.966370,839.734802 738.608093,844.836548 705.935791,847.608215 
	C666.543457,850.949951 627.095276,851.217468 587.610535,848.393494 
	C552.353088,845.871765 517.491699,840.913330 483.055634,833.034973 
	C444.223633,824.150940 406.552307,811.831543 370.799500,794.057190 
	C333.294373,775.411743 299.079010,752.425903 273.473419,718.519592 
	C254.868011,693.882751 244.207291,666.416443 245.916000,635.024902 
	C247.286255,609.851440 256.647552,587.569763 271.158417,567.271057 
	C291.312683,539.078064 317.982391,518.292114 347.577820,501.062134 
	C389.888916,476.429382 435.582001,460.578186 483.150635,449.665192 
	C540.083679,436.603851 597.790955,431.210022 656.095703,432.406433 
	C713.196411,433.578125 769.557007,440.730469 824.667542,456.122467 
	C876.435486,470.580902 925.553162,490.839172 968.480774,524.063232 
	C974.267151,528.541626 979.690308,533.489441 985.538025,538.461426 
M1022.207153,683.559692 
	C1034.773926,652.671509 1033.513062,622.167358 1019.209717,592.230469 
	C1004.949951,562.384766 981.999084,540.098938 955.459534,521.349182 
	C908.980896,488.512756 856.635681,469.197998 801.744629,456.056732 
	C765.433716,447.363678 728.599915,442.215271 691.351257,439.634277 
	C653.867615,437.036957 616.415344,437.283447 579.018311,440.417450 
	C543.358398,443.405884 508.093109,449.021179 473.325073,457.766388 
	C428.752045,468.977875 385.974731,484.585419 346.437500,508.310150 
	C319.675629,524.368835 295.681976,543.662781 276.799286,568.863953 
	C243.881943,612.796021 242.751297,664.320374 273.835297,709.523926 
	C288.766663,731.237732 307.924500,748.624939 329.494385,763.419800 
	C376.974915,795.986877 430.078430,815.141113 485.724182,827.904236 
	C529.138000,837.861572 573.182617,842.954285 617.714722,844.364746 
	C664.463928,845.845398 710.915710,843.011353 757.057068,835.621521 
	C787.763489,830.703613 818.001404,823.574463 847.562683,813.797668 
	C889.177246,800.034485 928.705566,782.073059 963.692688,755.207581 
	C988.580078,736.097351 1009.556885,713.687927 1022.207153,683.559692 
z" />
	<path fill="#171719" opacity="1.000000" stroke="none" d="
M191.257156,629.122803 
	C196.196915,628.242920 200.985687,626.427246 205.394241,627.100647 
	C213.967880,628.410461 218.499664,636.274353 216.690979,644.563904 
	C214.974640,652.430237 208.390564,657.262268 198.762863,655.208679 
	C193.079269,653.996338 187.975220,650.067017 183.097137,647.605164 
	C178.436722,650.063538 173.556564,653.692993 168.083344,655.290527 
	C158.629822,658.049927 150.230133,650.842529 149.718048,641.070435 
	C149.103683,629.346313 159.881180,624.530823 167.564346,626.730835 
	C173.272827,628.365479 178.421616,631.954712 184.170807,634.850159 
	C185.858246,633.468384 188.396301,631.390137 191.257156,629.122803 
M189.112900,642.497131 
	C192.113892,644.504578 194.916138,646.956726 198.165283,648.408936 
	C202.396927,650.300171 207.467789,648.244751 209.196381,644.462952 
	C210.896103,640.744202 210.371658,637.112976 207.065826,634.680603 
	C201.696793,630.730164 190.660782,633.658936 189.112900,642.497131 
M170.740189,634.426575 
	C169.489822,633.989441 168.105362,632.973022 167.014664,633.225464 
	C163.954178,633.933960 160.045807,634.358215 158.317123,636.432434 
	C156.779266,638.277649 156.594910,642.839111 157.865829,644.987488 
	C159.120316,647.108154 162.893631,648.616638 165.659088,648.783508 
	C171.486801,649.135071 175.295044,645.331970 178.622162,640.351562 
	C176.089355,638.419189 173.739243,636.626221 170.740189,634.426575 
z" />
	<path fill="#171719" opacity="1.000000" stroke="none" d="
M1070.914429,628.710449 
	C1082.324097,623.113037 1090.669922,628.339783 1098.651489,635.801880 
	C1100.476807,634.108704 1102.194580,632.340454 1104.088989,630.787964 
	C1112.996704,623.488281 1126.528076,625.287537 1130.732422,634.462952 
	C1133.146362,639.730896 1133.215820,645.222961 1129.612671,650.051941 
	C1125.867065,655.071899 1120.150391,656.963135 1114.542603,655.341370 
	C1108.707275,653.653931 1103.408936,650.110352 1098.279785,647.577881 
	C1094.088379,649.885559 1089.507812,653.280090 1084.367310,655.023804 
	C1077.445801,657.371704 1069.829346,653.896545 1066.717285,648.222900 
	C1063.135254,641.692017 1064.590454,634.471069 1070.914429,628.710449 
M1122.554077,647.106506 
	C1125.586670,644.219910 1126.586426,640.428467 1124.202148,637.256653 
	C1122.596436,635.120605 1119.193115,633.465027 1116.453735,633.229980 
	C1110.418335,632.711853 1106.356689,636.361450 1103.289307,641.454895 
	C1108.833252,646.155579 1113.799438,651.603455 1122.554077,647.106506 
M1080.527710,648.990295 
	C1086.631836,648.867554 1090.547607,645.368408 1094.245728,640.151306 
	C1090.629883,637.843201 1087.510986,635.246033 1083.935547,633.714294 
	C1078.779419,631.505371 1073.325562,634.080750 1072.125854,638.612915 
	C1070.706665,643.974060 1073.385742,647.631653 1080.527710,648.990295 
z" />
	<path fill="#171719" opacity="1.000000" stroke="none" d="
M382.975555,869.050964 
	C381.818237,872.363037 380.772614,875.296875 379.727020,878.230774 
	C379.211945,878.426819 378.696869,878.622925 378.181824,878.819031 
	C377.459930,877.406189 375.809052,875.687378 376.158203,874.627258 
	C380.142578,862.528442 384.431793,850.530029 388.640625,838.502014 
	C392.993866,838.505554 393.952454,840.630737 394.063507,844.470520 
	C394.364349,854.868103 395.170258,865.251038 395.866638,877.196899 
	C403.299591,866.832397 409.814880,857.747437 416.320831,848.675537 
	C420.196136,848.796692 421.575073,849.987488 420.563171,854.252075 
	C417.734222,866.174561 415.471832,878.231384 412.998718,890.173035 
	C408.751404,890.760437 408.382721,888.753052 409.104401,885.537231 
	C410.985962,877.152954 412.705109,868.732239 413.564514,859.870544 
	C408.415314,866.894165 403.321106,873.959412 398.067108,880.903748 
	C397.098755,882.183716 395.483307,882.974121 394.166473,883.990417 
	C393.470856,882.345337 392.297424,880.739319 392.159088,879.048584 
	C391.402100,869.797791 390.899231,860.526245 389.278900,851.093567 
	C387.215027,856.953308 385.151123,862.813049 382.975555,869.050964 
z" />
	<path fill="#171719" opacity="1.000000" stroke="none" d="
M479.068115,384.893860 
	C480.961761,395.253265 482.810486,405.192413 484.755402,415.648773 
	C483.012146,416.242889 481.382233,416.798340 479.356018,417.488861 
	C475.205750,408.962585 471.187195,400.706848 466.563995,391.209015 
	C465.669556,400.733551 464.656494,408.865509 464.245422,417.027832 
	C464.042297,421.061554 462.330750,422.245819 458.480499,421.884491 
	C457.069641,414.490936 455.648560,407.043793 454.243896,399.682739 
	C448.098663,399.220703 445.704742,397.355103 445.592041,392.830750 
	C445.501068,389.176971 446.741913,386.176666 450.862732,385.597931 
	C454.926971,385.027100 457.145355,387.403900 457.912598,391.015076 
	C459.010864,396.183990 459.754089,401.428314 461.446014,406.801880 
	C461.918121,402.432159 462.389404,398.062347 462.862671,393.692749 
	C463.113190,391.379944 463.222809,389.037933 463.687897,386.768951 
	C463.884491,385.809998 464.832581,385.005157 465.439087,384.130280 
	C466.251709,384.787262 467.375732,385.279449 467.825165,386.128632 
	C470.261353,390.731750 472.530762,395.423157 476.037506,399.891602 
	C475.160950,393.696442 474.284393,387.501282 473.349182,380.891510 
	C474.668335,380.505432 476.015625,380.111115 477.715546,379.613586 
	C478.191742,381.383423 478.607483,382.928528 479.068115,384.893860 
M452.263641,389.566284 
	C449.038208,389.109711 448.533783,391.185516 449.191193,393.448486 
	C449.455322,394.357727 451.644806,395.655334 452.247345,395.354248 
	C454.824982,394.065979 454.924500,391.989624 452.263641,389.566284 
z" />
	<path fill="#171719" opacity="1.000000" stroke="none" d="
M624.875916,394.875610 
	C624.874817,388.575684 624.874817,382.762299 624.874817,378.240784 
	C621.855103,375.606018 619.016846,374.097504 617.679749,371.738190 
	C615.627075,368.116272 617.849426,363.599579 621.498169,362.318420 
	C624.882751,361.130066 628.849426,363.437012 629.322144,367.836853 
	C629.903503,373.247559 629.460999,378.768250 629.460999,384.241425 
	C629.863098,384.304138 630.265259,384.366882 630.667358,384.429596 
	C632.340210,378.689026 633.934753,372.923462 635.751099,367.228699 
	C636.119080,366.074982 637.324890,365.188538 638.144470,364.178894 
	C638.832825,365.131775 639.812195,365.989380 640.160461,367.053589 
	C641.905762,372.386566 643.485962,377.773621 645.844604,383.128906 
	C645.844604,376.557739 645.844604,369.986572 645.844604,363.087219 
	C647.784546,362.955688 649.189514,362.860413 651.049744,362.734283 
	C651.049744,375.079285 651.049744,387.150940 651.049744,399.468964 
	C647.560120,400.835052 645.592102,399.923584 644.619263,395.816803 
	C642.809509,388.176666 640.536438,380.646271 637.461182,373.047058 
	C635.445129,380.628204 633.249146,388.167908 631.490417,395.808289 
	C630.635437,399.522705 628.939636,400.873505 624.877014,399.614563 
	C624.877014,398.289062 624.877014,396.825623 624.875916,394.875610 
M620.433289,368.741211 
	C621.318909,369.880829 622.204529,371.020447 623.090149,372.160065 
	C624.032227,371.419342 625.529114,370.820099 625.763977,369.899048 
	C626.010437,368.932373 625.047119,367.657227 624.612549,366.516937 
	C623.297485,367.018463 621.982361,367.519989 620.433289,368.741211 
z" />
	<path fill="#171719" opacity="1.000000" stroke="none" d="
M559.268066,378.165863 
	C557.535950,387.240631 555.939880,395.888550 554.297424,404.787628 
	C552.500610,404.943787 550.931458,405.080170 548.848328,405.261200 
	C548.200989,397.441254 547.574768,389.876404 546.953918,382.376282 
	C540.943176,381.448151 537.982666,378.854156 538.986450,374.337219 
	C539.519409,371.939087 541.842651,369.004852 544.070190,368.133057 
	C547.533020,366.777771 550.329529,369.384491 550.932312,372.826416 
	C551.842896,378.025604 552.040588,383.349701 553.335571,388.902710 
	C554.179321,385.446045 555.073730,382.000732 555.849487,378.528900 
	C556.391663,376.102325 556.589600,373.584137 557.308716,371.218567 
	C557.620117,370.194275 558.856750,369.451263 559.673157,368.580475 
	C560.412659,369.337708 561.475586,369.965454 561.838928,370.873230 
	C564.085938,376.487915 566.175537,382.165588 569.130920,387.582672 
	C568.638367,380.667969 568.145874,373.753235 567.622253,366.400970 
	C569.234192,366.201019 570.609924,366.030396 572.518799,365.793640 
	C573.505615,378.210541 574.461914,390.243347 575.406067,402.123138 
	C571.202515,404.234436 569.320862,402.807983 568.138977,399.008179 
	C566.264954,392.983032 564.088013,387.047821 561.878418,381.134613 
	C561.406250,379.871002 560.246887,378.864136 559.268066,378.165863 
M543.203979,377.375061 
	C544.712524,376.972565 546.377686,376.815704 547.632812,376.015594 
	C548.001953,375.780243 547.540527,373.453400 546.838379,372.591217 
	C546.334351,371.972290 543.974915,371.834808 543.857910,372.102051 
	C543.223633,373.550415 543.029724,375.191620 543.203979,377.375061 
z" />
	<path fill="#171719" opacity="1.000000" stroke="none" d="
M302.614929,467.502258 
	C302.411743,465.713440 301.495544,463.558655 302.179901,462.225403 
	C303.105133,460.422852 305.100952,458.426117 306.937378,458.073090 
	C308.376831,457.796326 310.417755,459.720032 311.902527,461.000977 
	C312.639191,461.636566 312.725708,463.025726 313.924927,463.808014 
	C314.808655,457.115021 309.514923,452.379364 307.735352,445.945679 
	C308.771790,445.129395 309.984741,444.174133 311.502380,442.978912 
	C313.696350,447.136047 315.691772,450.917053 317.563721,454.464020 
	C318.816284,453.858856 319.848267,453.360260 320.880249,452.861633 
	C321.267303,453.943970 322.282379,455.317627 321.937744,456.060577 
	C319.946045,460.354645 322.115326,463.698700 323.972687,467.202759 
	C326.405518,471.792480 325.515778,475.945129 321.862366,479.428741 
	C320.073486,481.134491 318.031952,482.651245 315.901367,483.908966 
	C308.577759,488.232178 305.204620,487.148956 301.316284,479.519348 
	C299.584259,476.120758 297.777802,472.760132 296.686157,470.679962 
	C292.821045,469.891327 289.271576,470.144440 287.436035,468.492767 
	C285.882202,467.094666 285.572266,463.326324 286.112030,460.921173 
	C286.500244,459.191620 289.073120,457.034821 290.892395,456.803009 
	C292.697968,456.572968 295.340790,458.054504 296.610809,459.607697 
	C298.567230,462.000275 299.665558,465.094452 301.529785,468.495605 
	C302.319275,469.071167 302.706879,469.042145 303.094482,469.013092 
	C302.934662,468.509491 302.774811,468.005859 302.614929,467.502258 
M319.504333,470.036377 
	C318.839264,468.774933 318.174194,467.513489 317.340057,465.931396 
	C312.909790,469.453583 308.500732,472.285980 302.498230,469.528412 
	C305.353210,473.396973 304.099731,480.171692 310.646851,480.480652 
	C315.231415,480.696991 319.666595,475.417419 319.504333,470.036377 
M291.484192,466.851440 
	C294.380005,465.874664 295.019684,463.887390 293.367645,461.527100 
	C292.898193,460.856476 290.624939,460.506805 290.069550,461.004272 
	C287.897308,462.950073 288.165833,465.015106 291.484192,466.851440 
M304.994537,462.205719 
	C305.674622,463.710876 306.354675,465.216034 307.034729,466.721191 
	C307.917267,465.730835 309.587921,464.688721 309.526947,463.760376 
	C309.375671,461.457275 308.006104,460.077484 304.994537,462.205719 
z" />
	<path fill="#171719" opacity="1.000000" stroke="none" d="
M358.183563,443.680786 
	C359.860138,447.875092 361.407562,451.706360 363.103119,455.904449 
	C361.628723,456.766418 360.296417,457.545319 358.588684,458.543701 
	C354.499756,448.393097 350.574921,438.649872 346.650085,428.906647 
	C346.146973,428.970184 345.643860,429.033691 345.140717,429.097198 
	C345.041595,430.539612 344.768646,431.994537 344.871674,433.422363 
	C345.518341,442.387329 346.098206,451.361847 347.023224,460.299774 
	C347.410187,464.038483 346.164551,465.919830 341.860565,466.445312 
	C339.141327,459.742767 336.356598,452.878754 333.571381,446.014679 
	C326.941620,446.971954 324.069489,445.526581 323.454346,440.730499 
	C322.952728,436.819489 324.281158,433.744080 328.321198,432.584503 
	C332.125854,431.492432 334.361542,433.847290 335.691467,436.887634 
	C337.791504,441.688599 339.534943,446.645508 342.318359,451.327209 
	C341.674683,445.753967 340.996155,440.184357 340.407349,434.605347 
	C340.216614,432.798340 339.591461,430.590973 340.353027,429.233002 
	C341.530304,427.133759 343.550720,424.482635 345.546509,424.166382 
	C347.401672,423.872375 350.638580,425.827484 351.608917,427.667084 
	C354.229370,432.635010 355.966675,438.068787 358.183563,443.680786 
M326.703705,439.511627 
	C327.860931,440.582947 329.018127,441.654266 330.175354,442.725586 
	C330.837402,441.873688 332.076111,440.988403 332.029144,440.177582 
	C331.954956,438.896271 331.018555,437.664856 330.447052,436.412323 
	C329.238586,437.181000 328.030121,437.949677 326.703705,439.511627 
z" />
	<path fill="#171719" opacity="1.000000" stroke="none" d="
M385.518280,420.890930 
	C381.244598,420.254272 379.172760,417.861237 379.090576,414.084076 
	C379.016174,410.663361 380.427155,407.749603 384.068878,406.970367 
	C387.962952,406.137115 390.486206,408.207031 391.606201,411.817261 
	C393.197540,416.946930 394.573700,422.143402 396.838867,427.145569 
	C396.838867,421.409119 396.826752,415.672607 396.847107,409.936188 
	C396.852417,408.442322 396.397491,406.528748 397.135529,405.542297 
	C398.687347,403.468048 400.660675,401.003845 402.909485,400.416290 
	C404.296539,400.053833 407.575989,402.501038 408.176483,404.298126 
	C411.475372,414.169678 414.209290,424.230042 417.204987,434.457306 
	C415.519806,435.104675 414.175079,435.621277 412.448181,436.284698 
	C409.391785,425.859741 406.409546,415.687744 403.427307,405.515778 
	C402.751495,405.581696 402.075684,405.647614 401.399872,405.713531 
	C401.399872,417.282623 401.399872,428.851746 401.399872,440.276642 
	C398.806488,441.259521 397.288055,441.835022 395.054016,442.681702 
	C393.206207,436.141510 391.458374,429.834381 389.627167,423.551544 
	C389.117584,421.803253 388.952179,419.306244 385.518280,420.890930 
M383.206512,411.703308 
	C383.564240,413.390411 383.921936,415.077515 384.279663,416.764618 
	C385.321014,416.535370 386.963715,416.615387 387.274780,416.010529 
	C387.867126,414.858795 388.297638,412.842468 387.682770,412.064941 
	C387.032471,411.242645 385.086304,411.445129 383.206512,411.703308 
z" />
	<path fill="#171719" opacity="1.000000" stroke="none" d="
M688.933716,899.037231 
	C691.779358,903.505310 694.443420,907.660095 697.107422,911.814819 
	C697.401855,911.741455 697.696289,911.668152 697.990723,911.594788 
	C697.990723,901.843933 697.990723,892.093079 697.990723,881.820129 
	C698.824158,881.708923 700.182556,881.527710 701.964172,881.290039 
	C702.681274,895.235229 703.378967,908.802673 704.082153,922.477966 
	C701.000122,923.881531 699.180908,923.145996 697.488220,920.370911 
	C691.737122,910.942017 685.746948,901.658997 680.095764,892.712341 
	C680.095764,901.951294 679.983154,911.329285 680.161499,920.701843 
	C680.218079,923.676147 679.600830,925.181274 675.542297,924.227173 
	C674.908508,910.796021 674.263428,897.125671 673.617065,883.426819 
	C677.148193,882.161255 679.098511,883.129028 680.749695,886.103210 
	C683.163452,890.450989 686.060852,894.530212 688.933716,899.037231 
z" />
	<path fill="#171719" opacity="1.000000" stroke="none" d="
M899.050476,431.020325 
	C894.772461,434.367126 890.597534,437.862549 886.140991,440.951752 
	C885.081482,441.686157 883.079346,441.060699 881.905945,441.060699 
	C882.784790,433.430756 883.461121,426.412323 884.468506,419.441711 
	C884.816589,417.033264 885.621826,414.528473 886.850464,412.439606 
	C890.826233,405.680847 895.855225,405.551086 900.670044,411.845459 
	C908.330750,409.590698 912.826050,414.424744 910.788940,423.241669 
	C909.372925,429.370483 907.245605,435.335541 905.419556,441.368774 
	C904.658752,443.882568 903.855042,446.383392 903.000854,449.113739 
	C901.325134,448.503204 899.974609,448.011139 898.256409,447.385132 
	C899.314880,443.785004 900.329285,440.334961 901.637756,436.208008 
	C903.103638,428.899048 907.708008,422.785217 905.360046,415.293701 
	C903.033020,415.858398 901.147339,416.315979 899.225891,416.782257 
	C897.928040,414.938080 896.703186,413.197510 895.511902,411.504730 
	C888.992493,413.718475 889.069641,421.817017 888.580383,432.762939 
	C890.357727,431.736603 892.035095,430.767944 893.540405,429.898712 
	C892.848572,428.252319 891.641663,426.797638 891.873352,425.627930 
	C892.316101,423.393188 893.127808,420.848877 894.679016,419.368500 
	C895.528137,418.558258 899.110352,419.009705 899.850037,420.043823 
	C901.120911,421.820587 901.560120,424.507202 901.514526,426.795227 
	C901.486084,428.219421 899.924194,429.613007 899.050476,431.020325 
z" />
	<path fill="#171719" opacity="1.000000" stroke="none" d="
M1043.546753,522.766479 
	C1039.250366,524.150330 1034.988281,525.655701 1030.645874,526.875916 
	C1027.673462,527.711182 1024.589233,528.149231 1021.052002,528.866943 
	C1020.473755,528.196167 1019.523315,527.093628 1019.038025,526.530701 
	C1022.795105,520.199097 1026.212402,514.221741 1029.845093,508.378296 
	C1033.657715,502.245575 1040.914917,501.038544 1046.655151,505.394836 
	C1054.886597,511.641693 1055.752075,521.660950 1048.750244,529.126648 
	C1044.002319,534.189209 1039.314087,539.307678 1034.330200,544.691711 
	C1033.041992,543.234009 1031.988892,542.042542 1030.764282,540.656982 
	C1036.043701,534.876587 1041.134766,529.302551 1046.683594,523.231384 
	C1047.598511,521.687988 1048.243042,520.682129 1048.479736,519.588135 
	C1049.434692,515.174622 1046.813477,510.543030 1042.466919,508.843445 
	C1037.716675,506.986023 1034.919922,509.522034 1032.837769,513.329041 
	C1031.244873,516.241455 1029.833252,519.253052 1028.224609,522.452087 
	C1030.710205,522.251831 1032.653809,522.095215 1034.830933,521.919800 
	C1034.561523,520.840576 1034.099854,519.924438 1034.152954,519.039185 
	C1034.361450,515.555237 1035.708130,512.730530 1039.711670,512.859497 
	C1043.830811,512.992249 1044.727539,516.083374 1044.652588,519.494385 
	C1044.628540,520.592651 1043.934326,521.676208 1043.546753,522.766479 
z" />
	<path fill="#171719" opacity="1.000000" stroke="none" d="
M560.740356,904.169250 
	C561.851624,906.527039 562.798340,908.547363 563.745056,910.567688 
	C564.073792,910.484863 564.402527,910.402039 564.731201,910.319214 
	C565.554321,900.315857 566.377380,890.312500 567.226990,879.986816 
	C568.745605,879.986816 570.134521,879.986816 571.923645,879.986816 
	C570.777893,893.798584 569.654846,907.336487 568.527588,920.925842 
	C565.392944,921.982971 563.747803,920.982178 562.531067,918.208557 
	C558.460754,908.929871 554.215027,899.728088 550.014221,890.507019 
	C549.547852,889.483337 548.938354,888.524902 547.439392,887.581238 
	C546.581543,897.875061 545.723755,908.168884 544.831055,918.881042 
	C543.306030,918.769653 541.935730,918.669556 540.151489,918.539185 
	C541.332764,904.531189 542.485291,890.864319 543.637817,877.197449 
	C544.087891,876.846130 544.537903,876.494873 544.987915,876.143555 
	C546.578430,877.530151 548.783142,878.610474 549.653625,880.356140 
	C553.503784,888.076904 556.970398,895.988953 560.740356,904.169250 
z" />
	<path fill="#171719" opacity="1.000000" stroke="none" d="
M581.528259,370.242615 
	C582.165649,366.056427 584.228943,363.573425 588.224243,364.006134 
	C592.389465,364.457275 593.941711,367.521088 594.047424,371.444458 
	C594.092346,373.110016 594.327026,374.795990 594.150208,376.437683 
	C593.222717,385.048676 595.312988,391.708984 604.848877,393.258820 
	C604.848877,384.025024 604.848877,374.336823 604.848877,364.091461 
	C605.831909,364.014130 607.345520,363.895050 609.828125,363.699707 
	C609.828125,376.139038 609.828125,388.070404 609.828125,401.161804 
	C607.927551,400.487946 605.634094,399.903168 603.557983,398.878204 
	C601.205261,397.716644 599.047241,396.160614 596.631836,394.669434 
	C595.279358,398.871307 593.875366,403.244995 588.838196,402.038635 
	C586.544678,401.489349 583.769409,398.704590 583.122498,396.398163 
	C581.715454,391.381256 584.811035,388.322052 589.850159,387.159119 
	C589.679626,384.132080 589.522339,381.340912 589.348999,378.264465 
	C584.168701,378.191345 581.473511,375.696808 581.528259,370.242615 
M589.703735,373.010895 
	C589.113831,371.323425 588.523865,369.635925 587.933899,367.948456 
	C586.939697,368.928802 585.190002,369.844299 585.099182,370.902191 
	C584.867554,373.601349 586.461487,374.707886 589.703735,373.010895 
M587.992615,392.503571 
	C588.165833,394.292908 588.339111,396.082275 588.512329,397.871613 
	C589.669373,397.281891 591.581360,396.917816 591.838135,396.058990 
	C592.534851,393.728241 591.914307,391.690338 587.992615,392.503571 
z" />
	<path fill="#171719" opacity="1.000000" stroke="none" d="
M736.093079,385.011108 
	C733.687134,388.980896 730.483948,389.930817 726.076599,387.130249 
	C724.729065,392.757477 723.462830,398.045380 722.115784,403.670898 
	C720.943115,403.670898 719.571350,403.670898 718.229187,403.670898 
	C718.060608,403.254242 717.847778,402.962311 717.834717,402.661774 
	C717.518921,395.382538 717.008179,388.103302 716.977844,380.822205 
	C716.934509,370.426392 725.735046,364.390228 735.366455,367.954346 
	C740.486145,369.848938 743.410400,373.956360 743.105774,379.962738 
	C742.670349,388.550262 741.801270,397.115753 741.088928,406.046631 
	C739.340393,405.948364 737.942017,405.869781 735.942383,405.757416 
	C736.585876,398.928955 737.202454,392.386322 737.884705,385.003876 
	C737.411804,381.024597 737.692078,377.374847 736.132324,374.871643 
	C734.071655,371.564484 730.189026,370.867279 726.432068,372.819366 
	C722.455811,374.885437 721.224670,378.850159 722.633728,384.294373 
	C724.025330,382.407745 725.247925,380.225647 726.960571,378.542053 
	C730.130615,375.425873 734.783386,376.804962 735.851379,381.059143 
	C736.167297,382.317383 736.025269,383.690582 736.093079,385.011108 
z" />
	<path fill="#171719" opacity="1.000000" stroke="none" d="
M469.461609,865.237427 
	C482.499817,861.976624 493.119476,871.301636 492.583344,885.381592 
	C492.446716,888.969543 491.687286,892.690674 490.411407,896.045349 
	C487.820984,902.856445 483.104034,907.661377 475.361176,907.960999 
	C467.537231,908.263733 462.184875,904.246887 458.864655,897.315063 
	C454.427307,888.051025 456.887024,870.607971 469.461609,865.237427 
M468.209778,871.541931 
	C461.569183,877.405640 460.740875,885.003479 462.248840,893.018921 
	C463.298096,898.596191 467.565491,902.272766 472.743988,903.014709 
	C477.870270,903.749146 482.588257,901.774780 484.820862,896.260437 
	C486.682373,891.662659 487.993561,886.272644 487.536285,881.423279 
	C486.567047,871.143860 477.716370,866.682495 468.209778,871.541931 
z" />
	<path fill="#171719" opacity="1.000000" stroke="none" d="
M666.368835,902.308350 
	C665.374878,907.367737 665.271118,912.481445 663.163025,916.558960 
	C656.850830,928.768921 640.948547,928.915405 634.212646,916.951050 
	C629.399292,908.401611 629.528503,899.371948 634.164734,890.718018 
	C637.732971,884.057617 644.914551,880.805115 651.792542,882.135010 
	C658.654724,883.461792 664.600098,890.060730 665.952515,897.913696 
	C666.177917,899.222351 666.217407,900.563049 666.368835,902.308350 
M640.116638,890.606628 
	C635.212708,896.166992 635.180237,902.842651 636.315125,909.498657 
	C637.437073,916.078796 642.778381,920.693542 648.471130,920.858826 
	C654.080322,921.021667 659.367371,917.159241 660.627625,910.338318 
	C661.493713,905.651001 661.381287,900.301331 659.986267,895.778198 
	C657.097961,886.413452 648.627197,884.242432 640.116638,890.606628 
z" />
	<path fill="#171719" opacity="1.000000" stroke="none" d="
M504.483978,911.563477 
	C496.976227,902.369934 495.864319,891.480469 501.271790,881.687134 
	C504.464233,875.905334 509.312164,872.060913 515.992004,872.246155 
	C522.869263,872.436951 528.212036,875.853760 531.339172,882.362061 
	C535.153931,890.301453 534.685730,898.185059 530.932312,905.834106 
	C525.579285,916.743103 514.809570,919.077576 504.483978,911.563477 
M515.525452,911.250000 
	C517.963196,910.348083 520.826355,909.982971 522.762756,908.448364 
	C529.961975,902.742859 531.236816,888.804932 525.552979,881.594238 
	C522.477417,877.692261 516.518372,876.043030 512.072998,877.863464 
	C505.832855,880.418701 502.076904,888.343079 502.869568,897.280701 
	C503.586487,905.364075 507.098938,909.473938 515.525452,911.250000 
z" />
	<path fill="#171719" opacity="1.000000" stroke="none" d="
M939.453247,819.048035 
	C949.500244,822.125793 953.813965,829.459412 954.996826,838.758667 
	C956.089233,847.347290 953.869385,854.947266 945.971680,859.885681 
	C940.200256,863.494446 933.184265,863.110718 927.825317,858.949890 
	C919.383057,852.395142 916.288391,838.066956 921.420105,828.642456 
	C925.193481,821.712463 931.096130,818.417358 939.453247,819.048035 
M924.277039,844.621338 
	C925.760193,847.381592 926.839050,850.477600 928.800964,852.840210 
	C935.052124,860.367615 946.350769,858.332581 949.543335,849.099792 
	C952.265320,841.227905 950.498108,833.886047 944.962158,827.842285 
	C938.532837,820.823242 927.579041,823.298645 924.708435,832.497437 
	C923.619019,835.988342 924.236755,840.011963 924.277039,844.621338 
z" />
	<path fill="#171719" opacity="1.000000" stroke="none" d="
M1064.313232,760.200684 
	C1061.081055,764.989441 1058.020874,769.437073 1054.691528,774.275940 
	C1045.100952,765.275330 1036.172852,756.896545 1026.447021,747.769043 
	C1030.505859,742.412720 1034.145874,736.910767 1038.515869,732.067505 
	C1041.896606,728.320801 1046.635376,727.882812 1051.404907,729.711060 
	C1063.753540,734.444641 1069.468140,747.632446 1064.313232,760.200684 
M1060.104248,759.306824 
	C1064.390991,749.997559 1060.717896,740.495422 1050.795532,735.226074 
	C1044.830322,732.058105 1039.833740,734.760437 1034.136108,744.262695 
	C1033.655762,745.063782 1033.291748,745.934631 1032.827881,746.864868 
	C1040.168823,753.715149 1047.278320,760.349487 1054.619385,767.199890 
	C1056.519165,764.569580 1058.165771,762.289856 1060.104248,759.306824 
z" />
	<path fill="#171719" opacity="1.000000" stroke="none" d="
M798.306763,412.140686 
	C794.895264,413.630463 792.132263,416.638885 788.125366,413.448364 
	C789.307129,406.299438 790.541748,398.830902 791.558044,392.683197 
	C789.176758,389.656494 786.515442,387.666107 786.012512,385.230103 
	C785.540771,382.945129 786.825989,379.780365 788.364380,377.799927 
	C789.226562,376.689880 792.957886,376.278992 794.005615,377.176605 
	C795.900452,378.799957 797.977295,381.728699 797.815063,383.954803 
	C797.299500,391.031403 795.787292,398.035370 794.661255,405.067566 
	C794.536621,405.845703 794.418823,406.624969 794.291443,407.444824 
	C804.491333,407.216705 807.461060,404.834229 809.146606,395.604889 
	C809.947449,391.219727 810.647583,386.816162 811.438477,382.155334 
	C812.988037,382.155334 814.360962,382.155334 815.605591,382.155334 
	C815.882690,382.755005 816.167969,383.066620 816.121704,383.316864 
	C814.771667,390.616669 813.343567,397.902435 812.056580,405.213104 
	C811.849976,406.386841 812.060791,407.723236 812.404297,408.888428 
	C813.575073,412.859680 813.028137,416.387238 808.998718,418.086639 
	C805.016296,419.766235 802.409973,417.723480 800.923950,413.846222 
	C800.627808,413.073578 799.455750,412.636627 798.306763,412.140686 
M794.002563,381.944092 
	C792.678528,381.592041 791.354431,381.239990 790.030396,380.887909 
	C789.714478,382.217255 789.031860,383.602264 789.222107,384.854767 
	C789.333618,385.589661 790.834534,386.113617 791.710449,386.732483 
	C792.538147,385.392883 793.365845,384.053284 794.002563,381.944092 
M807.217468,408.658691 
	C804.231567,408.723206 803.334229,410.535065 804.349670,412.927734 
	C804.726990,413.816956 807.121704,414.829498 807.817505,414.429779 
	C810.427246,412.930725 810.328430,410.841370 807.217468,408.658691 
z" />
	<path fill="#171719" opacity="1.000000" stroke="none" d="
M364.278168,867.187988 
	C364.567657,864.625122 364.921204,862.474854 364.877594,860.332703 
	C364.742279,853.679810 363.112946,851.842163 354.707397,848.817627 
	C352.781677,854.127991 350.849182,859.457031 348.809418,865.081909 
	C347.397308,864.531738 346.237976,864.080078 344.487091,863.397949 
	C348.941589,850.601624 353.326172,838.006165 358.015533,824.535217 
	C362.640472,826.540771 367.041901,827.983459 370.950836,830.268677 
	C375.314789,832.820007 378.132629,836.921936 377.552368,842.242065 
	C376.967346,847.606506 374.213104,851.566528 368.772156,852.475586 
	C368.772156,859.683899 368.772156,866.626587 368.772156,873.638306 
	C363.395874,873.324036 363.664856,870.529419 364.278168,867.187988 
M369.012451,834.418579 
	C366.429840,833.155090 363.847229,831.891663 360.931732,830.465332 
	C359.274353,835.360840 357.861511,839.534119 356.483826,843.603455 
	C363.815247,848.521851 368.298218,849.267639 371.012634,846.193298 
	C373.988739,842.822449 373.511993,839.054077 369.012451,834.418579 
z" />
	<path fill="#171719" opacity="1.000000" stroke="none" d="
M761.386841,396.815033 
	C759.726257,397.556580 757.383850,398.123566 757.360352,398.774292 
	C757.302185,400.382812 757.830383,402.574524 758.966125,403.566528 
	C763.806763,407.794403 769.549866,405.656281 770.510620,399.394897 
	C771.190674,394.962860 771.485535,390.472595 772.125549,386.033295 
	C772.579956,382.881531 772.671570,379.879883 769.312744,378.326355 
	C765.452026,376.540649 761.550171,375.684937 757.511169,378.320038 
	C756.084534,379.250763 754.086792,379.306030 751.652222,379.943726 
	C754.230347,372.520416 757.596558,370.876953 765.901611,371.929413 
	C774.333862,372.997955 778.224609,377.910675 777.232056,386.305847 
	C776.569214,391.912720 776.016479,397.540649 775.099243,403.107178 
	C774.145386,408.896027 770.674561,410.934723 763.582397,410.344208 
	C756.523254,409.756378 752.023865,406.330475 752.094360,401.010162 
	C752.146851,397.055084 752.530212,392.981476 753.624878,389.209930 
	C754.266724,386.998566 756.248901,384.456512 758.274414,383.610260 
	C759.712646,383.009399 763.316345,384.476715 764.013733,385.943298 
	C765.075806,388.176910 764.721924,391.238495 764.422424,393.886566 
	C764.307251,394.904602 762.692017,395.752930 761.386841,396.815033 
M760.238220,387.182556 
	C757.135986,386.852997 756.295776,388.788208 756.942322,391.168518 
	C757.174316,392.022644 759.177002,392.395752 760.371643,392.988373 
	C760.565430,391.187256 760.759277,389.386108 760.238220,387.182556 
z" />
	<path fill="#171719" opacity="1.000000" stroke="none" d="
M515.245728,395.656525 
	C517.444336,406.804199 514.511780,411.578186 504.922394,413.014648 
	C494.682861,414.548431 488.756134,406.540741 492.327271,395.968811 
	C492.532227,395.362091 492.959045,394.830292 493.388397,394.078308 
	C489.934814,390.362823 488.096375,386.216064 489.658051,380.998840 
	C490.797058,377.193634 493.346527,375.036285 496.965637,375.949493 
	C498.959595,376.452606 501.345703,378.927429 501.872833,380.951416 
	C502.839142,384.661682 500.682404,387.287231 496.725494,388.048096 
	C496.256653,388.138245 495.798615,388.284546 495.335571,388.404816 
	C495.305817,388.897827 495.276031,389.390808 495.246246,389.883789 
	C497.994781,390.078644 500.743317,390.273499 503.778900,390.488678 
	C504.937500,392.812592 504.702972,394.636932 501.310791,394.909637 
	C495.182556,395.402344 496.654755,399.622406 497.070160,403.390747 
	C497.578522,408.002838 500.700989,408.377136 504.335693,407.990265 
	C509.200714,407.472473 511.318604,405.382599 510.891663,401.030853 
	C510.453857,396.568207 509.646667,392.142822 509.052094,387.694305 
	C508.459808,383.262817 507.930817,378.822906 507.353912,374.226257 
	C508.955688,373.974487 510.233765,373.773560 512.129700,373.475555 
	C513.160645,380.824524 514.169861,388.018463 515.245728,395.656525 
M497.204193,384.681915 
	C499.572449,383.223114 500.009491,381.315857 497.837860,379.535309 
	C497.217957,379.026978 494.889160,379.382599 494.506012,380.029907 
	C493.254608,382.144043 493.465210,384.190002 497.204193,384.681915 
z" />
	<path fill="#171719" opacity="1.000000" stroke="none" d="
M772.106079,914.163330 
	C770.879944,913.572144 769.726379,913.115967 769.346741,912.299805 
	C768.445190,910.361511 768.026184,908.204712 767.206848,906.221069 
	C763.853455,898.102356 761.127502,896.850769 752.109192,899.463379 
	C752.779846,905.069153 753.461060,910.763489 754.141541,916.451477 
	C751.177002,918.131104 749.413513,918.176636 749.002380,914.318848 
	C747.786560,902.909912 746.456909,891.512207 745.040894,880.126343 
	C744.710266,877.467285 745.330566,876.079895 748.180786,875.721008 
	C751.129639,875.349670 754.006287,874.315857 756.956482,874.064087 
	C761.943604,873.638550 766.256287,875.216919 768.677917,879.915344 
	C771.140808,884.693726 770.288208,889.245850 766.975830,893.389221 
	C766.580688,893.883423 766.145935,894.346069 766.684021,893.729370 
	C769.298767,900.087769 771.662903,905.619141 773.774719,911.245239 
	C774.040344,911.953064 772.977722,913.159424 772.106079,914.163330 
M760.039551,892.851990 
	C765.103088,890.099548 766.581970,886.380005 764.331970,882.056213 
	C762.305237,878.161255 756.490295,877.577759 749.879028,880.783691 
	C750.421265,885.047485 750.976929,889.417114 751.602173,894.333801 
	C754.440552,893.846619 756.845032,893.433960 760.039551,892.851990 
z" />
	<path fill="#171719" opacity="1.000000" stroke="none" d="
M666.120483,399.493042 
	C665.847290,391.653015 665.847290,384.177307 665.847290,376.486298 
	C661.561462,375.950867 659.010254,373.558350 658.980957,369.069916 
	C658.956482,365.317017 660.608093,362.416931 664.560059,362.051300 
	C668.893738,361.650299 671.113159,364.554504 671.253174,368.454437 
	C671.473694,374.597992 671.102051,380.762390 670.997925,386.918243 
	C670.967041,388.743378 670.993103,390.569458 670.993103,393.059784 
	C673.978760,391.639374 677.141907,390.795227 679.380493,388.873810 
	C681.402222,387.138550 683.393616,384.333252 683.671082,381.809875 
	C684.301392,376.077942 683.869690,370.229218 683.869690,364.071411 
	C685.847656,363.983643 687.237244,363.921967 688.851501,363.850342 
	C688.851501,369.582092 688.860168,375.020142 688.848755,380.458130 
	C688.839905,384.683594 687.190918,388.721802 689.609253,393.178741 
	C691.249390,396.201660 689.160767,399.926575 685.459778,401.038147 
	C680.950134,402.392670 678.808899,399.361389 677.725769,396.158203 
	C673.901489,397.406555 670.147583,398.631958 666.120483,399.493042 
M667.447021,370.917725 
	C667.074768,369.352112 666.835815,367.727997 666.199585,366.278259 
	C666.093140,366.035736 663.661926,366.222687 663.356445,366.783691 
	C662.755371,367.887482 662.285095,369.962860 662.874817,370.591858 
	C663.651733,371.420654 665.501160,371.243988 667.447021,370.917725 
M686.144531,393.416504 
	C684.848572,392.976227 683.552673,392.535950 682.256714,392.095642 
	C681.899963,393.245605 681.117981,394.477539 681.318909,395.519958 
	C681.483948,396.375977 682.817078,397.006836 683.632446,397.737488 
	C684.483459,396.571106 685.334534,395.404755 686.144531,393.416504 
z" />
	<path fill="#171719" opacity="1.000000" stroke="none" d="
M241.027344,499.805359 
	C241.758041,498.239960 242.589188,497.027069 243.922134,495.081879 
	C250.643875,502.707001 257.350769,509.776367 263.281921,517.445679 
	C264.659058,519.226379 263.957397,523.217590 263.174500,525.887329 
	C262.467682,528.297607 260.549896,530.477661 258.803070,532.435242 
	C252.978455,538.962402 249.122650,538.928406 243.291626,532.543213 
	C240.839920,529.858459 238.407730,527.155884 235.966675,524.461426 
	C235.882172,525.021790 235.797668,525.582092 235.713165,526.142456 
	C232.795700,526.142456 229.466141,527.031128 227.064987,525.917725 
	C224.057220,524.523010 223.288910,521.087097 224.678329,517.686829 
	C226.653763,512.852417 231.372803,511.659180 235.048050,515.368530 
	C239.136963,519.495422 243.037186,523.832031 246.748306,528.302551 
	C249.305298,531.382812 251.699554,532.398926 255.021255,529.518066 
	C259.077606,526.000183 260.199219,521.529663 257.421631,518.356689 
	C252.058746,512.230530 246.566422,506.217651 241.027344,499.805359 
M228.966217,517.604736 
	C227.230164,519.765503 227.045395,521.892639 229.752930,523.210632 
	C230.416931,523.533813 232.515015,522.543945 232.775330,521.764221 
	C233.631531,519.199646 232.956360,517.153015 228.966217,517.604736 
z" />
	<path fill="#171719" opacity="1.000000" stroke="none" d="
M946.032593,463.964355 
	C947.046631,467.367279 948.559204,468.660339 950.281250,464.944275 
	C952.931641,459.224854 955.624329,453.473938 957.538635,447.493011 
	C958.183594,445.477905 957.283691,441.727875 955.731140,440.526367 
	C953.078125,438.473175 949.417603,437.569336 946.052917,436.647827 
	C944.173462,436.133148 942.037537,436.555328 940.017151,436.555328 
	C939.829163,435.948883 939.641113,435.342468 939.453064,434.736023 
	C941.229309,433.542053 942.881409,431.615448 944.804749,431.289551 
	C950.919434,430.253357 955.739868,433.397919 959.868164,437.436066 
	C963.232544,440.727051 964.183838,444.854156 962.344482,449.356659 
	C959.836243,455.496826 957.246033,461.603485 954.726440,467.739044 
	C953.248047,471.339081 950.679321,473.121582 946.867981,471.882294 
	C942.822998,470.567078 940.426697,467.739990 941.067810,463.210510 
	C941.434204,460.621643 942.147156,458.081879 942.619141,455.910889 
	C941.070312,454.272552 938.739075,452.939575 938.622742,451.435242 
	C938.414246,448.739624 938.997437,445.624420 940.343079,443.324158 
	C940.977661,442.239410 945.194275,441.699554 945.951782,442.549316 
	C947.710388,444.522156 949.399780,447.565582 949.220886,450.037903 
	C948.890930,454.599182 947.199219,459.061981 946.032593,463.964355 
z" />
	<path fill="#171719" opacity="1.000000" stroke="none" d="
M232.782120,764.562622 
	C229.488785,766.202332 226.517746,767.635193 223.348679,769.163513 
	C222.209457,767.851257 221.157547,766.639526 219.746506,765.014160 
	C232.152008,759.210876 244.256912,753.548218 257.864136,747.182739 
	C258.117950,750.095764 259.048370,752.551819 258.381195,754.444763 
	C253.874680,767.230835 249.029938,779.897766 244.204391,792.845337 
	C241.005585,790.933594 239.708588,788.794189 241.684158,785.801880 
	C247.174408,777.486267 243.985641,771.088501 237.222290,765.578430 
	C236.197647,764.743713 234.494003,764.742493 232.782120,764.562622 
M252.170197,754.938232 
	C248.064621,757.030701 243.959030,759.123169 239.457748,761.417297 
	C242.112091,764.514709 244.531296,767.337769 247.324112,770.596741 
	C249.603973,765.126892 251.610947,760.311829 253.798325,755.090942 
	C253.494049,755.019470 253.189758,754.947998 252.170197,754.938232 
z" />
	<path fill="#171719" opacity="1.000000" stroke="none" d="
M1007.069336,478.779602 
	C1007.594177,481.045654 1008.149536,482.912170 1008.823853,485.178436 
	C998.521606,486.110962 998.339417,496.432281 992.089600,501.536407 
	C991.084534,500.771851 989.841553,499.826294 988.182922,498.564545 
	C993.201660,492.541626 995.051697,484.407715 1003.074951,480.706177 
	C1002.352600,479.713593 1001.509338,478.554840 1000.665955,477.396118 
	C1003.938293,472.750092 1007.766113,471.305603 1012.507935,472.927307 
	C1018.520996,474.983826 1023.206665,481.391113 1022.760559,487.386414 
	C1022.604675,489.481812 1022.123413,491.787903 1021.045166,493.538635 
	C1016.700317,500.593323 1012.064209,507.468567 1007.333618,514.720032 
	C1005.781067,513.450012 1004.552490,512.445068 1003.135864,511.286255 
	C1007.550842,504.520325 1011.781738,497.960724 1016.096680,491.456879 
	C1018.141357,488.375031 1018.580566,485.260376 1016.461182,482.133270 
	C1014.227295,478.837158 1011.270203,477.009003 1007.069336,478.779602 
z" />
	<path fill="#171719" opacity="1.000000" stroke="none" d="
M319.633392,838.543518 
	C323.687927,828.883057 327.589081,819.572021 331.670471,809.830872 
	C338.272980,813.454529 344.611053,816.933044 351.111938,820.500977 
	C350.587952,821.865173 350.127319,823.064453 349.463867,824.791687 
	C344.311646,822.044922 339.407043,819.430115 334.515106,816.822083 
	C328.506714,827.293396 328.510254,827.287109 338.566101,832.961060 
	C339.852295,833.686829 341.078705,834.518616 342.668396,835.510742 
	C342.183380,836.826233 341.712219,838.104187 341.099854,839.765198 
	C336.481354,837.254517 332.300598,834.981873 327.629822,832.442810 
	C325.699585,836.946899 323.909668,841.123596 322.020325,845.532349 
	C327.045074,848.408447 331.916870,851.196960 337.035522,854.126770 
	C336.554993,855.451294 336.123016,856.641968 335.482727,858.406921 
	C328.920898,854.801208 322.612671,851.334839 315.925232,847.660095 
	C317.157623,844.620667 318.318817,841.756836 319.633392,838.543518 
z" />
	<path fill="#171719" opacity="1.000000" stroke="none" d="
M859.629028,888.822632 
	C861.755005,888.177673 863.497803,887.642761 865.577515,887.004456 
	C866.049255,888.440613 866.490295,889.783447 867.042419,891.464172 
	C860.023376,893.611206 853.281494,895.673462 846.029846,897.891663 
	C842.906189,884.327209 839.863037,871.112671 836.705627,857.401672 
	C843.639893,855.316956 850.390625,853.287415 857.331238,851.200745 
	C859.175537,854.531189 858.324158,856.099792 854.894592,856.941345 
	C850.890564,857.923767 846.984802,859.306335 842.590881,860.651672 
	C843.442810,864.604919 844.269348,868.440186 845.176697,872.650818 
	C850.015259,871.296753 854.589966,870.016541 859.533813,868.633057 
	C859.929016,870.117004 860.281067,871.439270 860.704407,873.029114 
	C855.867126,874.556152 851.310242,875.994629 846.412537,877.540710 
	C847.449280,882.229065 848.441040,886.714111 849.536804,891.669556 
	C852.958252,890.705078 856.102051,889.818848 859.629028,888.822632 
z" />
	<path fill="#171719" opacity="1.000000" stroke="none" d="
M834.172302,386.989899 
	C845.960571,388.822754 849.984741,394.770050 847.485596,405.893860 
	C845.890625,412.992767 844.422852,420.120239 842.812134,427.636047 
	C841.100159,427.169128 839.618286,426.764954 837.840820,426.280151 
	C839.565002,418.146423 841.236206,410.393066 842.842773,402.626312 
	C843.608948,398.922058 842.958740,395.584717 839.526001,393.445557 
	C836.195312,391.370026 832.921082,391.522034 829.769714,394.485657 
	C831.024597,396.259277 832.293579,398.052917 833.574768,399.863831 
	C825.386963,405.473572 827.695740,414.765320 824.411621,422.309418 
	C823.210999,422.157867 821.797974,421.979523 819.515503,421.691437 
	C822.039429,413.960846 820.996643,405.511383 826.993225,398.646790 
	C826.089905,398.015839 824.944458,397.215759 823.598999,396.275970 
	C824.701416,390.730896 828.410034,387.993866 834.172302,386.989899 
z" />
	<path fill="#171719" opacity="1.000000" stroke="none" d="
M289.538177,796.436951 
	C283.273285,803.453125 278.231812,802.890076 267.177216,794.090149 
	C264.350647,798.371704 261.537170,802.633423 258.587097,807.102051 
	C257.267120,805.873413 256.191315,804.872070 254.823822,803.599243 
	C261.854553,792.651184 268.815796,781.811340 275.741760,771.026428 
	C288.027588,775.441162 295.809326,788.118835 289.538177,796.436951 
M275.056274,781.536072 
	C273.426178,784.183777 271.796082,786.831482 270.110626,789.569031 
	C273.272491,793.340759 276.567230,797.166016 281.737579,795.813477 
	C283.833771,795.265137 286.318573,792.130371 286.693146,789.854248 
	C287.722229,783.601257 282.662109,780.714172 278.217194,777.303101 
	C277.248810,778.620483 276.392303,779.785583 275.056274,781.536072 
z" />
	<path fill="#171719" opacity="1.000000" stroke="none" d="
M790.403320,906.407959 
	C794.550476,905.588135 798.294434,904.912720 802.477234,904.158203 
	C802.771729,905.496338 803.071533,906.858398 803.470825,908.672852 
	C796.446777,910.061707 789.660767,911.403564 782.227051,912.873413 
	C780.135681,899.116211 778.080688,885.598083 775.954773,871.613403 
	C782.407532,870.340088 788.541931,868.974548 794.742004,868.049622 
	C795.852173,867.883972 797.234009,869.539673 798.490479,870.354370 
	C798.268616,870.875122 798.046814,871.395874 797.825012,871.916626 
	C792.537964,873.037903 787.250854,874.159241 781.561951,875.365784 
	C782.087280,879.435059 782.589172,883.322571 783.159302,887.738342 
	C788.086548,886.819946 792.721985,885.955933 797.773010,885.014465 
	C798.014221,886.518555 798.231445,887.872742 798.490601,889.488464 
	C793.561401,890.551025 788.910767,891.553528 783.881165,892.637695 
	C784.657288,897.423523 785.395447,901.974915 786.201233,906.943481 
	C787.536255,906.806030 788.768127,906.679199 790.403320,906.407959 
z" />
	<path fill="#171719" opacity="1.000000" stroke="none" d="
M298.668945,818.351562 
	C297.310150,818.433044 295.671570,818.405212 295.268341,819.097168 
	C293.188080,822.667236 291.424286,826.421753 289.314941,830.574890 
	C287.841400,829.716614 286.515656,828.944397 284.861115,827.980713 
	C291.026428,815.913574 297.033539,804.156128 303.438873,791.619202 
	C307.829712,794.654907 312.102051,797.139893 315.800781,800.296936 
	C319.543945,803.491882 320.914795,807.947388 320.130157,812.934143 
	C318.968414,820.318054 311.622681,824.300598 304.196594,821.430908 
	C302.357422,820.720215 300.699982,819.539185 298.668945,818.351562 
M313.699524,815.127380 
	C317.439667,808.031067 315.151886,803.495728 305.391541,799.036499 
	C303.196625,803.389038 300.998199,807.748535 298.854156,812.000122 
	C305.582764,818.273621 308.238159,818.916809 313.699524,815.127380 
z" />
	<path fill="#171719" opacity="1.000000" stroke="none" d="
M447.940918,858.998779 
	C453.347351,864.719177 454.276672,870.439087 450.926697,875.985779 
	C447.664734,881.386719 441.957062,882.520325 430.953674,879.670410 
	C429.757080,884.724670 428.558319,889.788086 427.268982,895.234070 
	C425.766296,894.822327 424.419067,894.453186 422.709045,893.984680 
	C425.506592,881.201294 428.167725,868.721802 431.092987,856.304504 
	C431.317413,855.351990 433.635773,854.002075 434.588837,854.263855 
	C439.026062,855.482727 443.325348,857.203857 447.940918,858.998779 
M447.389954,872.501953 
	C449.059021,863.941345 445.249481,859.974915 435.121338,859.969910 
	C434.351532,863.476929 433.575195,867.034912 432.784607,870.589783 
	C432.676636,871.075317 432.311340,871.577820 432.388489,872.015503 
	C432.567841,873.032898 432.626923,874.406006 433.293488,874.948242 
	C437.346222,878.245789 443.480377,877.367004 447.389954,872.501953 
z" />
	<path fill="#171719" opacity="1.000000" stroke="none" d="
M203.648987,739.266479 
	C201.792496,734.384521 200.136292,729.808350 198.309998,724.762146 
	C200.785599,724.295593 202.034363,724.060242 203.511963,723.781799 
	C203.709778,724.612122 203.792343,725.232361 204.004303,725.804626 
	C205.525772,729.912476 206.719696,734.205750 208.813309,738.001221 
	C209.505081,739.255371 212.845093,740.082947 214.416168,739.527405 
	C215.992081,738.970093 217.679306,736.535950 217.880859,734.761292 
	C218.248474,731.524292 217.771439,728.132874 217.261459,724.866089 
	C215.975830,716.630188 218.182205,711.003052 223.613342,709.334167 
	C228.648102,707.787109 233.716949,711.283203 236.896774,718.818481 
	C237.902740,721.202393 238.294815,723.845276 239.058609,726.710266 
	C237.316650,726.959412 236.064148,727.138611 234.569839,727.352356 
	C234.334793,726.183472 234.134323,725.250732 233.960785,724.312988 
	C232.908539,718.626892 228.908188,713.421692 225.752258,714.400940 
	C219.949387,716.201355 221.839554,721.236694 222.052795,725.363953 
	C222.155075,727.343628 222.780670,729.290649 222.988785,731.271484 
	C223.679993,737.850220 221.379272,742.667664 216.687912,744.676880 
	C212.415787,746.506531 208.559906,744.973389 203.648987,739.266479 
z" />
	<path fill="#171719" opacity="1.000000" stroke="none" d="
M601.550354,910.882263 
	C605.627991,920.300964 610.477234,921.932800 622.708374,918.298340 
	C622.957764,918.479065 623.382690,918.622009 623.447876,918.862366 
	C623.745667,919.961548 623.942627,921.088013 624.186035,922.253418 
	C623.664551,922.587952 623.302551,922.931824 622.873169,923.079529 
	C606.441162,928.733521 595.962830,921.421021 595.747437,904.066467 
	C595.712708,901.266113 595.798401,898.358643 596.493225,895.672668 
	C599.940979,882.345398 610.867493,878.045715 625.184387,884.581726 
	C624.800598,885.825317 624.397949,887.130066 624.025818,888.335815 
	C623.314880,888.335815 622.979797,888.415894 622.701111,888.324402 
	C607.228333,883.241211 597.842590,891.462952 600.730713,907.587036 
	C600.906494,908.567993 601.150574,909.536682 601.550354,910.882263 
z" />
	<path fill="#171719" opacity="1.000000" stroke="none" d="
M711.511536,890.683960 
	C715.040710,880.051575 725.700745,874.693787 736.023010,878.333740 
	C737.067261,878.701965 737.468689,880.893066 738.753418,883.362915 
	C729.379883,881.778564 721.505188,880.452148 717.168518,889.323425 
	C713.737488,896.342102 715.327332,907.598694 720.187561,912.869202 
	C724.262329,917.287903 728.883606,917.347290 739.804504,913.013977 
	C740.258240,914.195374 740.710999,915.374329 741.321716,916.964722 
	C740.852722,917.242126 740.447266,917.548645 739.993164,917.738831 
	C738.160339,918.506287 736.368896,919.456421 734.461487,919.947876 
	C721.526733,923.280579 713.359192,918.174377 711.245850,904.916809 
	C710.528687,900.417847 711.282471,895.684387 711.511536,890.683960 
z" />
	<path fill="#171719" opacity="1.000000" stroke="none" d="
M275.459473,474.156311 
	C273.189941,476.044708 271.066284,477.545349 269.084930,479.214844 
	C267.236786,480.772003 265.539856,482.508728 263.776398,484.166473 
	C264.116638,484.637146 264.456879,485.107819 264.797119,485.578461 
	C267.884064,484.262360 270.985840,482.979828 274.053955,481.621185 
	C277.522705,480.085175 280.078979,480.923645 282.068665,484.202332 
	C284.137573,487.611511 286.510681,490.835144 288.622345,494.220001 
	C289.301544,495.308777 290.210571,496.845703 289.907990,497.841339 
	C289.098755,500.503754 288.253601,503.652466 286.311554,505.290680 
	C285.107819,506.306030 280.605835,505.700867 279.829742,504.440552 
	C278.370331,502.070435 278.250763,498.707214 278.169220,495.740570 
	C278.137146,494.572632 279.699493,493.360870 280.494476,492.227936 
	C276.403534,484.784943 276.397675,484.773682 269.339264,488.454895 
	C267.004150,489.672729 264.708099,490.965393 262.424255,492.207550 
	C257.659363,485.873413 258.893280,479.735168 265.237244,475.672577 
	C268.548157,473.552277 271.460632,470.809753 275.271515,467.776428 
	C275.425323,470.132874 275.546417,471.987549 275.459473,474.156311 
M282.876190,501.962372 
	C286.022522,502.372711 286.795532,500.467560 286.051453,498.073792 
	C285.770142,497.168823 283.906982,496.755524 282.764893,496.118073 
	C282.567017,497.929504 282.369171,499.740936 282.876190,501.962372 
z" />
	<path fill="#171719" opacity="1.000000" stroke="none" d="
M901.437866,872.988770 
	C906.951477,871.167664 912.070190,869.288330 917.786621,867.189575 
	C917.713135,867.074524 918.395874,868.143555 919.710205,870.201294 
	C915.085388,872.767883 910.870850,875.725708 906.210083,877.531921 
	C900.756958,879.645081 895.661560,877.916870 891.867676,873.413330 
	C885.834534,866.251831 883.604187,857.838867 885.328064,848.728577 
	C887.082825,839.455505 895.777710,833.916931 907.838074,833.987549 
	C907.920349,835.294678 908.004883,836.638245 908.090271,837.995056 
	C899.916687,839.624573 891.369629,840.351318 889.961731,850.718018 
	C888.531067,861.251526 892.568481,869.095215 901.437866,872.988770 
z" />
	<path fill="#171719" opacity="1.000000" stroke="none" d="
M438.914825,390.116516 
	C438.601257,395.696503 435.205475,396.856323 430.716736,396.889496 
	C427.893433,396.910370 424.593567,396.559357 423.693939,401.307434 
	C427.251709,401.307434 430.522888,401.179016 433.779449,401.342133 
	C437.323364,401.519592 439.515228,403.233978 440.155334,407.023407 
	C440.871613,411.263397 442.209686,415.396393 442.977631,419.630280 
	C443.648315,423.327942 443.035919,427.186218 438.801666,427.905914 
	C436.635223,428.274139 433.124695,426.894684 431.869415,425.131805 
	C429.533875,421.851746 430.193665,417.683594 433.893372,415.611877 
	C437.788361,413.430786 436.070526,410.719452 435.058044,408.522339 
	C434.396393,407.086578 432.085693,405.712677 430.415192,405.583466 
	C426.815369,405.305023 423.152069,405.847321 419.566956,406.050781 
	C416.983948,397.331146 420.568878,392.414246 429.315338,391.898956 
	C431.298462,391.782135 433.166901,390.293976 435.171021,389.733307 
	C436.296783,389.418335 437.592133,389.709656 438.914825,390.116516 
M438.573151,423.989319 
	C440.499847,421.944855 440.213409,419.912933 437.807800,418.872101 
	C437.017456,418.530090 434.499939,419.961151 434.300262,420.904755 
	C433.781738,423.355225 434.944214,425.061005 438.573151,423.989319 
z" />
	<path fill="#171719" opacity="1.000000" stroke="none" d="
M865.962524,420.943787 
	C870.533630,418.461365 871.175354,413.407806 867.503784,410.816498 
	C864.132629,408.437195 860.554688,406.350983 857.133789,404.177612 
	C859.066040,395.619507 864.134827,393.457123 871.286621,397.621216 
	C873.384583,398.842712 876.056458,399.050995 878.418762,399.859528 
	C879.412231,400.199585 880.285095,400.892029 881.331116,401.492157 
	C878.722412,406.428040 875.581177,406.059143 871.774109,403.579285 
	C869.195740,401.899719 866.549500,399.194397 862.585632,402.269684 
	C865.887817,404.614349 868.887817,406.618256 871.744507,408.809052 
	C874.471313,410.900330 875.670166,413.488922 874.502991,417.101898 
	C873.282043,420.881287 872.510803,424.808899 871.604492,428.686127 
	C870.724304,432.451324 868.896851,435.414703 864.585449,434.903015 
	C860.764709,434.449554 858.759216,431.690948 858.928772,427.898651 
	C859.109497,423.858215 860.771606,420.802460 865.962524,420.943787 
M866.912903,430.359375 
	C868.843933,428.063690 868.536255,426.004608 865.738586,425.041992 
	C864.910095,424.756927 862.692139,426.043304 862.456665,426.956635 
	C861.702209,429.881531 863.380859,431.135620 866.912903,430.359375 
z" />
	<path fill="#171719" opacity="1.000000" stroke="none" d="
M1028.511841,790.473389 
	C1030.179077,792.775635 1031.623169,794.793640 1033.623169,797.588501 
	C1032.481689,798.634216 1031.330566,799.688721 1029.792114,801.098083 
	C1022.665283,791.292480 1015.957703,782.063721 1008.968689,772.447815 
	C1005.450989,775.678894 1002.191406,778.672913 998.623291,781.950317 
	C997.691101,780.785217 996.850098,779.734009 996.009094,778.682800 
	C996.436523,778.964539 996.863953,779.246277 997.291443,779.528015 
	C1004.493591,771.287842 1011.695740,763.047729 1018.834473,754.880188 
	C1023.142334,758.633728 1023.135742,758.626831 1019.386841,762.221558 
	C1017.237732,764.282288 1015.113892,766.369385 1012.757141,768.659912 
	C1018.002075,775.930237 1023.145325,783.059692 1028.511841,790.473389 
z" />
	<path fill="#171719" opacity="1.000000" stroke="none" d="
M814.075073,863.158020 
	C819.788086,861.760071 825.095520,860.455627 830.823669,859.047729 
	C831.271912,860.323120 831.731628,861.631042 832.349304,863.388428 
	C827.827820,864.595032 823.723938,865.690186 819.092773,866.926086 
	C821.093445,877.740479 822.926453,888.624451 825.207153,899.413757 
	C825.944031,902.899597 825.013672,904.050354 821.154480,903.979370 
	C818.942444,892.299011 816.703918,880.478455 814.362671,868.115662 
	C810.132141,869.092285 806.013855,870.042908 801.380188,871.112549 
	C801.046814,869.673706 800.712952,868.232544 800.334534,866.598877 
	C805.049255,865.415405 809.359375,864.333435 814.075073,863.158020 
z" />
	<path fill="#171719" opacity="1.000000" stroke="none" d="
M984.912109,803.121582 
	C982.714539,799.374390 980.699036,795.943726 978.451782,792.118774 
	C979.617920,791.067871 980.789551,790.012085 982.369507,788.588318 
	C988.449219,798.863281 994.330444,808.802734 1000.464600,819.169739 
	C1005.360046,815.443115 1010.152039,811.795166 1014.960938,808.134399 
	C1017.646667,810.547241 1017.717224,812.229004 1014.669067,814.376587 
	C1009.401917,818.087524 1004.464600,822.266602 998.877014,826.650940 
	C994.157227,818.702087 989.625610,811.070129 984.912109,803.121582 
z" />
	<path fill="#171719" opacity="1.000000" stroke="none" d="
M985.818115,465.618866 
	C987.806641,461.724396 986.975220,458.635956 983.728516,456.665466 
	C980.569641,454.748260 977.666626,455.762024 975.387695,459.138580 
	C974.056763,458.214935 972.758179,457.313751 971.490417,456.433929 
	C974.846130,450.483124 979.220032,448.779205 984.311951,451.168793 
	C990.652466,454.144226 993.773254,460.963379 990.966858,466.791656 
	C987.092346,474.838226 982.801208,482.684174 978.486938,491.004822 
	C976.891357,490.043915 975.558838,489.241455 973.968933,488.283997 
	C977.989990,480.620514 981.832825,473.296661 985.818115,465.618866 
z" />
	<path fill="#171719" opacity="1.000000" stroke="none" d="
M870.528320,376.082825 
	C874.305176,378.066589 877.680725,379.983795 881.030334,381.886322 
	C881.298645,381.121063 881.789368,379.721375 882.459106,377.811066 
	C883.903503,378.238678 885.376221,378.674683 887.185974,379.210449 
	C885.574036,385.035431 884.051880,390.536011 882.610474,395.744629 
	C874.511658,391.672882 866.748474,387.769897 858.819946,383.783752 
	C860.393433,378.016754 863.163757,375.942017 870.528320,376.082825 
M877.948975,389.000366 
	C878.189087,388.958221 878.429138,388.916077 878.669312,388.873901 
	C878.533813,388.496155 878.398376,388.118408 878.203979,387.027161 
	C874.901917,379.839935 868.659058,377.810028 864.750854,382.406921 
	C868.962158,384.471283 873.226746,386.561737 877.948975,389.000366 
z" />
	<path fill="#171719" opacity="1.000000" stroke="none" d="
M528.204102,380.571289 
	C528.787598,385.135956 529.328430,389.251526 529.915405,393.718597 
	C534.361633,394.022552 537.943176,395.572449 538.055725,400.832916 
	C538.135864,404.581421 536.749268,407.499664 532.751526,408.025879 
	C528.763733,408.550781 526.436279,406.271393 525.913757,402.444092 
	C524.835693,394.548279 523.944214,386.626923 522.987549,378.714661 
	C522.730591,376.589294 522.515442,374.458832 522.252808,372.073303 
	C523.698608,371.650604 525.070374,371.249542 527.168579,370.636078 
	C527.525269,374.043854 527.843323,377.083008 528.204102,380.571289 
M530.216125,403.524109 
	C531.603882,403.231659 533.241272,403.272919 534.271240,402.502289 
	C534.766479,402.131805 534.461914,400.001556 533.867981,399.095184 
	C533.430298,398.427338 531.936279,398.451660 530.912964,398.167603 
	C530.549011,399.726624 530.185120,401.285645 530.216125,403.524109 
z" />
	<path fill="#171719" opacity="1.000000" stroke="none" d="
M1038.859985,477.555115 
	C1041.449219,476.394806 1043.635620,475.337311 1046.053955,474.167633 
	C1047.001221,475.069824 1048.053711,476.072357 1049.315308,477.273926 
	C1045.645386,481.370697 1041.530151,483.724731 1036.135254,482.261078 
	C1030.628906,480.767181 1026.849976,477.044037 1025.204346,471.667511 
	C1024.128418,468.152313 1024.687134,464.243286 1028.579468,462.815399 
	C1030.295044,462.186096 1033.552002,463.160797 1034.863159,464.568085 
	C1037.589478,467.494507 1036.790405,470.944916 1034.132080,473.871185 
	C1033.728882,474.315094 1033.318726,474.752777 1032.458374,475.684113 
	C1034.816284,476.459930 1036.636719,477.058899 1038.859985,477.555115 
z" />
	<path fill="#171719" opacity="1.000000" stroke="none" d="
M432.634583,378.546692 
	C434.176361,375.511658 436.072632,372.804199 436.485687,369.886780 
	C436.912140,366.874939 437.818207,365.715424 440.719025,366.054749 
	C442.600922,377.414673 435.582092,386.081421 425.312592,385.151001 
	C420.175323,384.685547 416.797668,379.602966 419.209717,375.155884 
	C420.162109,373.399902 423.307556,371.335297 424.817291,371.747070 
	C426.847473,372.300842 428.576813,374.929199 429.817535,377.031616 
	C430.530609,378.240021 429.556702,380.782532 432.634583,378.546692 
z" />
	<path fill="#171719" opacity="1.000000" stroke="none" d="
M647.342102,410.172729 
	C647.468872,408.228485 647.591858,406.750702 647.733398,405.050446 
	C649.131409,405.050446 650.374390,405.050446 652.486328,405.050446 
	C651.966675,410.289948 652.083130,415.506104 650.622498,420.235199 
	C650.138184,421.803345 645.646240,422.487183 642.891357,422.847809 
	C641.560669,423.022003 639.424744,421.884644 638.665466,420.695160 
	C636.189209,416.815918 633.839722,412.763489 632.268127,408.474792 
	C631.943665,407.589355 634.943542,404.533752 636.837097,404.005768 
	C639.842285,403.167847 641.863464,405.293488 642.031372,408.463684 
	C642.205078,411.743073 642.070007,415.038788 642.070007,418.655029 
	C643.910339,418.655029 645.280823,418.655029 647.338318,418.655029 
	C647.338318,415.870331 647.338318,413.254730 647.342102,410.172729 
z" />
	<path fill="#171719" opacity="1.000000" stroke="none" d="
M561.533569,346.188354 
	C569.253784,347.933594 572.138245,353.330841 573.561523,359.327606 
	C564.960205,359.327606 556.464355,359.327606 547.998718,359.327606 
	C547.351501,350.498718 551.655396,346.244446 561.533569,346.188354 
M561.140930,350.034943 
	C557.344299,349.878387 554.059265,350.601196 552.302795,355.227661 
	C557.795532,355.227661 562.758057,355.227661 567.720642,355.227661 
	C567.892639,354.907349 568.064697,354.587006 568.236694,354.266693 
	C566.135132,352.882355 564.033569,351.498047 561.140930,350.034943 
z" />
	<path fill="#171719" opacity="1.000000" stroke="none" d="
M249.024231,466.238098 
	C251.480148,460.357697 255.757660,456.759216 261.540710,456.335571 
	C266.499969,455.972229 270.649750,458.683868 272.966370,462.588867 
	C265.265533,467.164581 257.795898,471.602905 249.591232,476.477997 
	C249.382278,473.439636 249.147110,470.020111 249.024231,466.238098 
M252.239548,468.776001 
	C252.614822,469.217529 253.259903,470.082611 253.326797,470.040009 
	C257.561707,467.342438 261.749512,464.570984 265.993805,461.771759 
	C260.108307,458.593262 255.812866,460.608154 252.239548,468.776001 
z" />
	<path fill="#171719" opacity="1.000000" stroke="none" d="
M293.919525,436.864319 
	C292.439423,433.288757 292.497253,430.234283 295.371368,427.944397 
	C299.015411,425.041016 302.785736,427.222565 304.915222,433.657928 
	C308.570587,430.700745 310.102631,427.084473 309.134033,422.729950 
	C308.449310,419.651764 309.334076,417.961029 312.294067,417.218964 
	C316.739319,426.282440 312.179810,436.883911 302.528076,439.683838 
	C299.263519,440.630829 296.277832,440.162170 293.919525,436.864319 
M296.032440,433.561218 
	C297.200928,434.337280 298.369415,435.113342 299.537903,435.889404 
	C300.025940,435.107056 301.024933,434.217346 300.888123,433.566315 
	C300.654541,432.454987 299.708466,431.493378 299.061676,430.468903 
	C298.048828,431.244934 297.035950,432.020966 296.032440,433.561218 
z" />
	<path fill="#171719" opacity="1.000000" stroke="none" d="
M500.884033,362.014893 
	C502.137939,359.224365 503.158142,356.675751 504.720520,354.520081 
	C506.266663,352.386810 508.260315,350.535492 510.261871,348.795349 
	C511.071960,348.091064 512.423096,348.009094 513.528076,347.643951 
	C513.938538,348.046967 514.348938,348.449982 514.759399,348.852966 
	C512.941528,351.640137 511.123627,354.427307 509.305756,357.214478 
	C509.631927,357.122955 509.958099,357.031433 510.284271,356.939911 
	C510.284271,360.079346 510.730377,363.319641 510.055115,366.306396 
	C509.800598,367.432129 506.051056,369.067871 505.448730,368.574341 
	C503.534790,367.006348 502.352753,364.545044 500.884033,362.014893 
z" />
	<path fill="#171719" opacity="1.000000" stroke="none" d="
M971.924194,435.231171 
	C969.614136,434.141541 967.139648,433.480469 965.925659,431.869568 
	C963.188354,428.237122 964.681763,422.596558 968.383728,420.641083 
	C971.718811,418.879425 975.927979,420.375519 977.575623,423.908173 
	C979.772156,428.617889 977.690735,433.111420 971.924194,435.231171 
M974.216919,429.888672 
	C973.793579,428.015961 973.560242,426.055664 972.773743,424.350464 
	C972.630493,424.039886 969.545959,424.331268 969.034424,425.126495 
	C968.312988,426.248016 968.084961,428.875549 968.796570,429.461243 
	C969.966064,430.423889 972.058838,430.264832 974.216919,429.888672 
z" />
	<path fill="#171719" opacity="1.000000" stroke="none" d="
M989.140625,833.098816 
	C989.105896,837.266846 988.983093,841.045349 988.860229,844.823853 
	C988.059021,844.835754 987.257812,844.847717 986.456604,844.859680 
	C986.456604,842.312317 986.456604,839.764954 986.456604,838.432556 
	C984.032104,836.098694 981.804138,834.805908 981.049072,832.922546 
	C980.559204,831.700684 982.218750,829.617004 982.915161,827.919434 
	C984.579468,828.605835 986.358215,829.111450 987.856628,830.059875 
	C988.540283,830.492615 988.670959,831.799072 989.140625,833.098816 
z" />
	<path fill="#171719" opacity="1.000000" stroke="none" d="
M571.654785,329.564575 
	C571.915100,333.064026 571.915100,336.186005 571.915100,339.327454 
	C566.780457,340.376221 566.446838,339.729156 567.206787,329.443604 
	C568.556213,329.360962 569.975281,329.274048 571.654785,329.564575 
z" />
	<path fill="#171719" opacity="1.000000" stroke="none" d="
M1077.865234,725.894592 
	C1079.132202,724.095886 1080.419800,722.688171 1081.707275,721.280457 
	C1082.841431,722.509521 1084.868286,723.727417 1084.883911,724.970459 
	C1084.903442,726.526062 1083.269897,728.102295 1082.349976,729.669556 
	C1080.861816,728.541565 1079.373779,727.413574 1077.865234,725.894592 
z" />
	<path fill="#171719" opacity="1.000000" stroke="none" d="
M974.140076,841.851929 
	C972.475281,843.143311 970.834412,844.018372 969.193481,844.893433 
	C968.481384,843.353638 967.027100,841.680847 967.272156,840.312378 
	C967.503723,839.019104 969.520935,838.045654 970.752686,836.931519 
	C971.889771,838.432861 973.026855,839.934265 974.140076,841.851929 
z" />
	<path fill="#171719" opacity="1.000000" stroke="none" d="
M877.105469,531.890991 
	C903.228455,556.403198 900.483826,602.889648 869.935913,625.604614 
	C853.634033,637.726501 835.222900,643.719299 815.264709,644.903687 
	C803.206421,645.619202 791.070923,645.035400 778.402344,645.035400 
	C778.402344,658.916687 778.402344,673.190063 778.402344,687.463501 
	C778.402344,701.786621 778.402344,716.109741 778.402344,730.721191 
	C768.901306,730.721191 759.473572,730.721191 749.772156,730.721191 
	C749.772156,658.745972 749.772156,586.708008 749.772156,514.385986 
	C778.983093,510.383820 807.943848,505.975616 837.231018,511.900482 
	C852.204712,514.929688 865.643677,521.044312 877.105469,531.890991 
M808.438660,620.986328 
	C816.503906,619.985474 824.701721,619.592590 832.608948,617.867493 
	C854.456482,613.100830 866.385620,597.247925 865.928711,574.527344 
	C865.513184,553.868164 853.114685,539.270874 831.184875,536.177307 
	C817.279236,534.215820 803.030090,534.624023 788.928772,534.161377 
	C785.517273,534.049438 782.080750,534.696472 778.630920,534.996643 
	C778.630920,562.928894 778.630920,590.343445 778.630920,618.908386 
	C788.334106,619.608093 797.898621,620.297791 808.438660,620.986328 
z" />
	<path fill="#171719" opacity="1.000000" stroke="none" d="
M676.963440,517.979858 
	C693.212341,525.640747 705.912598,536.492371 711.956787,553.499878 
	C722.640381,583.561768 710.854248,614.167664 682.455750,631.107178 
	C668.167053,639.630310 652.549561,644.031555 636.091858,644.913818 
	C624.026917,645.560547 611.899353,645.040527 599.372375,645.040527 
	C599.372375,673.231445 599.372375,701.799194 599.372375,730.702026 
	C589.554565,730.702026 580.151550,730.702026 570.391602,730.702026 
	C570.391602,658.815247 570.391602,586.819580 570.391602,514.380615 
	C602.266174,510.119110 634.009644,504.935974 665.861328,513.943542 
	C669.519104,514.977966 673.021423,516.561951 676.963440,517.979858 
M599.145447,538.753662 
	C599.145447,565.059631 599.145447,591.365601 599.145447,617.731689 
	C600.128052,618.086792 600.872620,618.482056 601.662476,618.622681 
	C618.697266,621.654175 635.678101,622.085938 652.667236,618.056335 
	C674.211914,612.946106 685.434631,599.660583 686.408630,577.693726 
	C687.293213,557.742432 678.194702,544.223938 659.190247,537.944031 
	C640.206299,531.670837 620.680359,533.740234 601.263611,534.913818 
	C600.501282,534.959900 599.847778,536.805664 599.145447,538.753662 
z" />
	<path fill="#171719" opacity="1.000000" stroke="none" d="
M478.584900,534.100342 
	C466.278992,533.549561 454.544830,533.421265 443.457123,538.856567 
	C421.368164,549.684692 418.481140,572.181152 437.419586,587.901123 
	C446.935028,595.799500 458.336243,600.086792 469.902740,603.902344 
	C483.996582,608.551514 497.715637,613.950195 510.153473,622.260559 
	C529.677551,635.305481 536.547668,654.123230 534.544250,676.609802 
	C532.185303,703.085754 515.949463,719.279724 492.471832,728.055054 
	C455.579498,741.844482 420.709106,734.848083 387.103943,715.129150 
	C391.354034,706.080933 395.354095,697.565125 399.235321,689.302185 
	C406.999634,693.428711 414.360565,697.987122 422.222260,701.387939 
	C439.868713,709.021362 458.300629,710.388611 476.959320,705.887817 
	C498.261688,700.749268 509.712830,682.240051 503.964813,662.731384 
	C501.719421,655.110535 497.120148,648.653442 490.393829,644.812012 
	C480.651245,639.247864 470.491211,634.185486 460.024597,630.173462 
	C445.380981,624.560364 430.949066,618.874390 418.277679,609.325867 
	C385.022522,584.266479 389.736206,537.684692 425.569122,517.587036 
	C439.646057,509.691742 454.844910,506.929657 470.693817,507.033142 
	C488.384125,507.148712 505.397034,510.445282 521.159363,518.892090 
	C522.878357,519.813293 524.525940,520.867920 526.505188,522.036987 
	C522.313232,529.853882 518.332764,537.276306 514.853210,543.764771 
	C502.606140,540.472412 490.825439,537.305359 478.584900,534.100342 
z" />
	<path fill="#171719" opacity="1.000000" stroke="none" d="
M659.522949,757.041382 
	C665.272522,759.424988 670.586548,761.753052 675.900574,764.081116 
	C667.975220,764.526611 661.966858,768.301941 656.027954,772.935059 
	C653.402039,774.983582 649.372498,775.565002 645.872986,776.069153 
	C642.300049,776.583984 638.432861,776.858643 634.989441,776.022888 
	C630.501038,774.933533 626.271851,772.719055 621.989014,770.855652 
	C617.818542,769.041260 613.854248,766.587524 609.530457,765.366516 
	C607.615662,764.825684 604.543274,766.093323 602.944641,767.568054 
	C601.958862,768.477478 602.762024,771.326172 602.762024,774.279602 
	C601.709534,774.365295 600.122253,774.494629 598.534912,774.623901 
	C598.400513,772.884033 597.785889,770.992981 598.272034,769.448486 
	C598.722717,768.017029 600.115784,766.447876 601.496033,765.811890 
	C612.961975,760.528198 623.961426,752.311157 637.658203,759.863342 
	C639.188782,760.707275 641.667236,760.126953 643.643005,759.811462 
	C648.809814,758.986633 653.941650,757.942505 659.522949,757.041382 
M648.527039,764.481140 
	C654.098267,768.230652 658.831421,764.364258 663.977173,763.166443 
	C661.782410,758.100525 653.989319,758.464050 645.886780,763.687988 
	C646.592346,763.881226 647.229797,764.055725 648.527039,764.481140 
M632.743896,764.497253 
	C633.440796,764.206177 634.137695,763.915161 634.971741,763.566772 
	C626.342651,758.474365 619.578247,758.065491 616.402771,762.954468 
	C621.723206,764.078064 626.281738,768.103333 632.743896,764.497253 
M634.590271,767.872925 
	C634.481934,768.382385 634.146057,769.252869 634.298279,769.348755 
	C638.881592,772.237183 643.312439,771.823303 647.588684,768.587708 
	C640.380798,765.363892 640.380798,765.363892 634.590271,767.872925 
z" />
	<path fill="#171719" opacity="1.000000" stroke="none" d="
M437.000183,762.256958 
	C486.295074,762.257568 535.089966,762.273926 583.884766,762.208862 
	C586.125305,762.205872 588.353455,761.299988 590.609802,761.147827 
	C591.771667,761.069458 593.262512,761.419128 594.074524,762.158020 
	C594.621338,762.655579 594.684265,764.638245 594.172485,765.125671 
	C593.376648,765.883667 591.885864,766.288879 590.728271,766.217407 
	C587.638733,766.026611 584.570068,765.163818 581.492493,765.160278 
	C523.037720,765.093445 464.582916,765.102356 406.128143,765.153625 
	C404.045654,765.155457 401.971741,765.907410 399.878601,766.015930 
	C398.550507,766.084778 397.010834,765.907104 395.932739,765.243835 
	C395.439728,764.940552 395.408508,762.583862 395.909637,762.240295 
	C396.932861,761.538696 398.470184,761.303772 399.774200,761.361633 
	C401.700806,761.447144 403.606384,762.223145 405.524811,762.239014 
	C415.849304,762.324524 426.174927,762.265930 437.000183,762.256958 
z" />
	<path fill="#171719" opacity="1.000000" stroke="none" d="
M736.999878,762.270386 
	C781.324280,762.279114 825.148865,762.306946 868.973145,762.219299 
	C872.197510,762.212891 875.410706,761.260193 878.649292,760.987732 
	C879.637695,760.904541 881.091003,761.339905 881.609192,762.058533 
	C882.148010,762.805908 882.240051,764.475769 881.741333,765.203125 
	C881.235291,765.941040 879.747375,766.385681 878.726440,766.325989 
	C873.825806,766.039185 868.938232,765.176147 864.045044,765.168518 
	C807.889343,765.081116 751.733521,765.094055 695.577759,765.163818 
	C692.679199,765.167419 689.791138,766.072449 686.878845,766.262512 
	C685.718384,766.338135 684.320312,765.852112 683.397644,765.143494 
	C682.962646,764.809509 683.044983,763.075134 683.520630,762.463989 
	C684.129456,761.681824 685.387329,760.929932 686.338562,760.962036 
	C696.729858,761.312927 707.112793,761.921509 717.504639,762.246094 
	C723.830383,762.443726 730.167786,762.268677 736.999878,762.270386 
z" />
	<path fill="#171719" opacity="1.000000" stroke="none" d="
M639.954834,737.309326 
	C640.086548,733.777222 640.086548,730.624817 640.086548,727.472473 
	C640.727783,727.421448 641.369019,727.370422 642.010254,727.319397 
	C642.224121,729.051758 643.006042,730.958679 642.538025,732.481445 
	C641.438354,736.059692 642.596924,738.616882 645.112915,740.924866 
	C645.725281,741.486694 646.345581,742.042236 646.925781,742.636292 
	C650.469177,746.264587 651.158875,751.410217 648.493225,754.235474 
	C644.929199,758.012878 638.359497,758.237732 634.582031,754.711853 
	C631.349060,751.694031 631.253845,747.689026 634.341675,744.067505 
	C636.160522,741.934326 637.995422,739.814819 639.954834,737.309326 
M640.567383,752.146606 
	C642.201782,751.360535 645.314209,750.324280 645.230408,749.829102 
	C644.690674,746.640869 643.451782,743.571045 642.253296,739.880066 
	C635.480652,747.839905 635.335083,748.786621 640.567383,752.146606 
z" />
	<path fill="#171719" opacity="1.000000" stroke="none" d="
M682.632446,774.086914 
	C679.099792,775.470764 677.156799,775.225281 678.597900,770.894836 
	C678.990417,769.715576 678.479431,768.235657 678.322632,766.051331 
	C682.102905,767.749939 684.126343,769.700684 682.632446,774.086914 
z" />
</svg>