<svg xmlns="http://www.w3.org/2000/svg" version="1.1" xmlns:xlink="http://www.w3.org/1999/xlink"
    xmlns:svgjs="http://svgjs.dev/svgjs" width="2000" height="1250" viewBox="0 0 2000 1250">
    <g transform="matrix(1,0,0,1,0,0)"><svg viewBox="0 0 612 420" data-background-color="#ffffff"
            preserveAspectRatio="xMidYMid meet" height="1250" width="2000" xmlns="http://www.w3.org/2000/svg"
            xmlns:xlink="http://www.w3.org/1999/xlink">
            <g id="tight-bounds" transform="matrix(1,0,0,1,0,0)"><svg viewBox="0 0 612 420" height="320" width="512">
                    <g><svg></svg></g>
                    <g><svg viewBox="0 0 612 420" height="320" width="512">
                            <g>
                                <path
                                    d="M96 160c0-88.366 71.634-160 160-160 88.366 0 160 71.634 160 160 0 88.366-71.634 160-160 160-88.366 0-160-71.634-160-160z"
                                    fill="#030303" fill-rule="nonzero" stroke="none" stroke-width="1"
                                    stroke-linecap="butt" stroke-linejoin="miter" stroke-miterlimit="10"
                                    stroke-dasharray="" stroke-dashoffset="0" font-family="none" font-weight="none"
                                    font-size="none" text-anchor="none" style="mix-blend-mode: normal"
                                    data-fill-palette-color="tertiary"></path>
                            </g>
                            <g transform="matrix(1,0,0,1,153.6,128.94869951363924)"><svg
                                    viewBox="0 0 204.8 62.10260097272151" height="62.10260097272151" width="204.8">
                                    <g><svg viewBox="0 0 204.8 62.10260097272151" height="62.10260097272151"
                                            width="204.8">
                                            <g><svg viewBox="0 0 204.8 62.10260097272151" height="62.10260097272151"
                                                    width="204.8">
                                                    <g id="textblocktransform"><svg
                                                            viewBox="0 0 204.8 62.10260097272151"
                                                            height="62.10260097272151" width="204.8" id="textblock">
                                                            <g><svg viewBox="0 0 204.8 62.10260097272151"
                                                                    height="62.10260097272151" width="204.8">
                                                                    <g transform="matrix(1,0,0,1,0,0)"><svg
                                                                            width="204.8"
                                                                            viewBox="2.34 -35.01 115.45 35.01"
                                                                            height="62.10260097272151"
                                                                            data-palette-color="#f9f9f9">
                                                                            <path
                                                                                d="M37.33-10.3L37.33-10.3Q37.33-8.42 36.85-6.92 36.38-5.42 35.6-4.27 34.81-3.13 33.76-2.32 32.71-1.51 31.59-1 30.47-0.49 29.31-0.24 28.15 0 27.12 0L27.12 0 2.64 0 2.64-6.35 27.12-6.35Q28.96-6.35 29.97-7.42 30.98-8.5 30.98-10.3L30.98-10.3Q30.98-11.18 30.71-11.91 30.44-12.65 29.94-13.18 29.44-13.72 28.72-14.01 28-14.31 27.12-14.31L27.12-14.31 12.52-14.31Q10.99-14.31 9.2-14.86 7.42-15.41 5.9-16.63 4.37-17.85 3.36-19.82 2.34-21.8 2.34-24.66L2.34-24.66Q2.34-27.51 3.36-29.48 4.37-31.45 5.9-32.68 7.42-33.91 9.2-34.46 10.99-35.01 12.52-35.01L12.52-35.01 34.13-35.01 34.13-28.66 12.52-28.66Q10.72-28.66 9.7-27.56 8.69-26.46 8.69-24.66L8.69-24.66Q8.69-22.83 9.7-21.77 10.72-20.7 12.52-20.7L12.52-20.7 27.12-20.7 27.17-20.7Q28.2-20.68 29.35-20.42 30.49-20.17 31.63-19.63 32.76-19.09 33.79-18.27 34.81-17.46 35.61-16.31 36.4-15.16 36.87-13.67 37.33-12.18 37.33-10.3ZM77.49-23.24L77.49-20.36Q77.49-18.19 76.95-16.48 76.41-14.77 75.5-13.46 74.58-12.16 73.39-11.23 72.19-10.3 70.88-9.72 69.58-9.13 68.25-8.86 66.92-8.59 65.74-8.59L65.74-8.59 51.39-8.59 51.39-14.94 65.74-14.94Q66.97-15.04 67.95-15.44 68.94-15.84 69.65-16.53 70.36-17.21 70.75-18.18 71.14-19.14 71.14-20.36L71.14-20.36 71.14-23.24Q71.02-24.44 70.63-25.44 70.24-26.44 69.57-27.15 68.89-27.86 67.94-28.26 66.99-28.66 65.74-28.66L65.74-28.66 51.44-28.66Q50.17-28.66 49.51-28 48.85-27.34 48.85-26.1L48.85-26.1 48.85 0 42.5 0 42.5-26.1Q42.5-28.54 43.39-30.25 44.28-31.96 45.62-33.01 46.95-34.06 48.51-34.53 50.07-35.01 51.39-35.01L51.39-35.01 65.74-35.01Q67.89-35.01 69.6-34.46 71.31-33.91 72.62-33 73.92-32.08 74.84-30.88 75.75-29.69 76.35-28.38 76.95-27.08 77.22-25.74 77.49-24.41 77.49-23.24L77.49-23.24ZM117.79-23.24L117.79-20.36Q117.79-18.19 117.26-16.48 116.72-14.77 115.8-13.46 114.89-12.16 113.69-11.23 112.5-10.3 111.19-9.72 109.88-9.13 108.55-8.86 107.22-8.59 106.05-8.59L106.05-8.59 91.69-8.59 91.69-14.94 106.05-14.94Q107.27-15.04 108.26-15.44 109.25-15.84 109.96-16.53 110.66-17.21 111.05-18.18 111.45-19.14 111.45-20.36L111.45-20.36 111.45-23.24Q111.32-24.44 110.93-25.44 110.54-26.44 109.87-27.15 109.2-27.86 108.25-28.26 107.29-28.66 106.05-28.66L106.05-28.66 91.74-28.66Q90.47-28.66 89.81-28 89.16-27.34 89.16-26.1L89.16-26.1 89.16 0 82.81 0 82.81-26.1Q82.81-28.54 83.7-30.25 84.59-31.96 85.92-33.01 87.25-34.06 88.81-34.53 90.38-35.01 91.69-35.01L91.69-35.01 106.05-35.01Q108.2-35.01 109.91-34.46 111.62-33.91 112.92-33 114.23-32.08 115.14-30.88 116.06-29.69 116.66-28.38 117.26-27.08 117.52-25.74 117.79-24.41 117.79-23.24L117.79-23.24Z"
                                                                                opacity="1"
                                                                                transform="matrix(1,0,0,1,0,0)"
                                                                                fill="#f9f9f9" class="wordmark-text-0"
                                                                                data-fill-palette-color="quaternary"
                                                                                id="text-0"></path>
                                                                        </svg></g>
                                                                </svg></g>
                                                        </svg></g>
                                                </svg></g>
                                        </svg></g>
                                </svg></g>
                        </svg></g>
                    <defs></defs>
                </svg>
                <rect width="512" height="320" fill="none" stroke="none" visibility="hidden"></rect>
            </g>
        </svg></g>
</svg>